<svg id="Capa_1" data-name="Capa 1" xmlns="http://www.w3.org/2000/svg" viewBox="0 0 34 29"><defs><style>.cls-1{fill:#fff;}</style></defs><path class="cls-1" d="M17,3.05a11.75,11.75,0,0,0-3.7,22.88c.59.11.8-.25.8-.57s0-1,0-2c-3.26.71-3.94-1.58-3.94-1.58a3.09,3.09,0,0,0-1.3-1.71c-1.06-.73.08-.72.08-.72a2.48,2.48,0,0,1,1.79,1.21,2.48,2.48,0,0,0,3.4,1A2.49,2.49,0,0,1,14.87,20c-2.6-.3-5.33-1.31-5.33-5.8A4.61,4.61,0,0,1,10.74,11a4.21,4.21,0,0,1,.12-3.1s1-.32,3.21,1.2a11.2,11.2,0,0,1,5.86,0c2.23-1.52,3.21-1.2,3.21-1.2A4.24,4.24,0,0,1,23.26,11a4.54,4.54,0,0,1,1.2,3.15c0,4.51-2.73,5.5-5.34,5.79a2.8,2.8,0,0,1,.8,2.17c0,1.57,0,2.84,0,3.22s.21.68.81.57A11.75,11.75,0,0,0,17,3.05Zm0,0"/></svg>