<?xml version="1.0" encoding="utf-8"?>
<svg xmlns:xlink="http://www.w3.org/1999/xlink" width="77.2028mm" height="52.9107mm" version="1.1" style="shape-rendering:geometricPrecision; text-rendering:geometricPrecision; image-rendering:optimizeQuality; fill-rule:evenodd; clip-rule:evenodd" viewBox="0 0 24279.08 16639.6" xmlns="http://www.w3.org/2000/svg">
  <defs>
    <style type="text/css">
   
    .fil6 {fill:none}
    .fil7 {fill:none;fill-rule:nonzero}
    .fil5 {fill:#4698CB}
    .fil8 {fill:#FEFEFE;fill-rule:nonzero}
    .fil4 {fill:#4698CB;fill-rule:nonzero}
    .fil1 {fill:url(#id0)}
    .fil2 {fill:url(#id1)}
    .fil3 {fill:url(#id2)}
    .fil0 {fill:url(#id3)}
   
  </style>
    <linearGradient id="id0" gradientUnits="userSpaceOnUse" x1="17635.5" y1="10759.11" x2="24279.08" y2="10759.11">
      <stop offset="0" style="stop-opacity:1; stop-color:#30BAEC"/>
      <stop offset="1" style="stop-opacity:1; stop-color:#002454"/>
    </linearGradient>
    <linearGradient id="id1" gradientUnits="userSpaceOnUse" x1="1372.5" y1="12458.4" x2="6726.76" y2="12458.4">
      <stop offset="0" style="stop-opacity:1; stop-color:#30BAEC"/>
      <stop offset="1" style="stop-opacity:1; stop-color:#010039"/>
    </linearGradient>
    <linearGradient id="id2" gradientUnits="userSpaceOnUse" x1="-0" y1="5880.48" x2="6643.58" y2="5880.48" xlink:href="#id0"/>
    <linearGradient id="id3" gradientUnits="userSpaceOnUse" x1="17552.32" y1="4181.2" x2="22906.55" y2="4181.2" xlink:href="#id1"/>
  </defs>
  <g id="Layer_x0020_1">
    <g id="_1950417430352">
      <path class="fil0" d="M22560.49 6721.48l-815.93 1640.92 -1445.75 -2883.32 -2746.49 -5477.41 1688.34 -1.64 0.19 1.64c641.74,0 1228.31,362.88 1514.81,937.13l0.31 -0.16 1972.54 3939.99c117.08,234.7 178.06,493.46 178.06,755.77 0,262.28 -60.98,521.01 -178.06,755.71l-168.03 331.37z"/>
      <path class="fil1" d="M22728.52 6390.1l-983.96 1972.29 -1389.68 2798.72 -1329.73 2678.02 -1389.64 2798.72 1672.49 1.73 0.22 -1.67c641.74,0 1228.28,-362.85 1514.81,-937.1l0.31 0.16 944.02 -1895.65 943.99 -1895.65c16.79,-33.59 32.39,-67.71 46.86,-102.24l398.8 -800.83 944.02 -1895.65c58.56,-117.37 103.06,-240.77 132.93,-367.57 29.88,-126.8 45.13,-257.06 45.13,-388.2 0,-131.17 -15.25,-261.4 -45.1,-388.2 -29.88,-126.8 -74.41,-250.17 -132.96,-367.54l-88.62 -174.82 -88.65 -174.79 -408.83 -811.18 -786.4 -1560.03c117.08,234.7 178.06,493.46 178.06,755.77 0,262.28 -60.98,521.01 -178.06,755.71z"/>
    </g>
    <g id="_1950417382384">
      <path class="fil2" d="M1718.59 9918.15l815.93 -1640.92 1445.75 2883.29 2746.49 5477.41 -1688.34 1.64 -0.19 -1.64c-641.74,0 -1228.31,-362.88 -1514.81,-937.13l-0.31 0.19 -1972.51 -3939.99c-117.11,-234.73 -178.09,-493.46 -178.09,-755.77 0,-262.31 60.98,-521.01 178.06,-755.74l168.03 -331.34z"/>
      <path class="fil3" d="M1550.57 10249.49l983.96 -1972.26 1389.68 -2798.75 1329.73 -2678.02 1389.64 -2798.72 -1672.49 -1.73 -0.22 1.67c-641.74,0 -1228.28,362.88 -1514.81,937.1l-0.31 -0.16 -944.02 1895.65 -943.99 1895.65c-16.79,33.62 -32.39,67.71 -46.86,102.27l-398.8 800.83 -944.02 1895.62c-58.56,117.37 -103.06,240.77 -132.93,367.57 -29.88,126.8 -45.13,257.06 -45.13,388.23 0,131.14 15.25,261.4 45.1,388.2 29.88,126.8 74.41,250.17 132.96,367.51l88.62 174.82 88.65 174.79 408.83 811.18 786.43 1560.06c-117.11,-234.73 -178.09,-493.46 -178.09,-755.77 0,-262.31 60.98,-521.01 178.06,-755.74z"/>
    </g>
    <path class="fil4" d="M7336.92 15200.42c-60.63,0 -109.82,-39.69 -109.82,-88.59 0,-48.93 49.19,-88.62 109.82,-88.62l399.9 -0.41c-42.42,-993.14 359.83,-2375.18 1782.78,-2540.44 59.91,-6.89 115.42,26.73 123.94,75.07 0.75,4.21 1.07,685.67 1.07,689.79l0.25 -677.31 -2.36 2457.13 116.33 -1.86 2.39 -1590c0,-293.92 59.28,-562.74 154.76,-759.07 107.68,-221.33 268.19,-358.73 455.66,-358.73 187.4,0 347.88,137.4 455.59,358.73 95.45,196.33 154.73,465.15 154.73,759.07l0 1587.52 58.18 0.28c-2.48,-545.41 27.23,-1149.44 77.99,-1745.73 49.81,-585.41 61.76,-1070.19 249.32,-1066.45l37.42 0.75c123.09,2.48 176.02,145.54 214.89,404.84 3.43,22.96 6.76,46.98 10.03,72.05 14.31,-257.56 32.61,-485.94 54.03,-674.95 46.51,-410.69 96.8,-656.9 258.51,-656.9 170.01,0 212.03,246.21 258.54,656.9 3.3,29 6.48,58.93 9.65,89.72 3.11,-30.79 6.32,-60.73 9.59,-89.72 46.51,-410.69 90.23,-656.9 258.54,-656.9 168.31,0 211.99,246.21 258.51,656.9 21.42,189.01 39.72,417.45 54.03,674.98 3.27,-25.1 6.6,-49.12 10.06,-72.08 24.53,-163.63 53.53,-402.67 241.15,-405.62 189.89,-2.99 210.64,481.1 260.49,1066.61 50.54,594.47 81.29,1205.36 78.87,1749.01l276.59 0.13 1.2 -2457.89c0,-48.97 49.15,-88.59 109.76,-88.59l49.81 0 0 -28.9c0,-48.93 49.15,-88.59 109.82,-88.59l871.72 -3.81c60.6,0 109.79,39.69 109.79,88.59l0 28.87 54.53 0c60.6,0 109.72,39.69 109.72,88.59l-0.25 2461.22 202.62 0.5 0.28 -2460.4c0,-48.9 49.12,-88.56 109.76,-88.56l49.85 0 0 -28.9c0,-48.9 49.15,-88.59 109.76,-88.59 3.18,0 6.35,0.13 9.47,0.35l867.22 -0.35c60.41,0 109.35,39.5 109.35,88.21l0.44 0 0 28.9 54.53 0c60.57,0 109.76,39.66 109.76,88.59l0 2460.75 244.95 0.72c60.35,-0.38 109.13,35.82 109.6,84.53 0.44,48.78 -48.08,88.56 -108.47,88.97l-343.61 -0.72c-3.52,0.28 -7.14,0.44 -10.79,0.44 -60.63,0 -109.79,-39.69 -109.79,-88.62l-1.48 -2457.48 -54.5 0c-60.66,0 -109.76,-39.69 -109.76,-88.59l0 -29.03 -657.18 -0.03 0 29.4c0,48.93 -49.12,88.62 -109.76,88.62l-49.78 0 0 2457.16 -0.44 0 0 0.38c-0.22,48.71 -49.41,88.06 -109.82,87.9l-412.51 -1.32c-3.08,0.22 -6.1,0.31 -9.18,0.31 -60.66,0 -109.82,-39.66 -109.82,-88.59l0 -2457.19 -54.5 0c-60.66,0 -109.82,-39.66 -109.82,-88.59l0 -28.87 -652.18 3.81 0 28.9c0,48.93 -49.12,88.59 -109.72,88.59l-49.85 0 -0.03 2454.55 -0.35 0 -0.09 2.77c-1.86,48.71 -52.36,87.02 -112.77,85.48l-497.26 0c-58.81,-1.51 -105.95,-40.44 -105.95,-88.24l0.16 -242.31c1.73,-398.58 -38.27,-1105.73 -78.62,-1580.32 -7.42,-87.27 -46.48,-539.34 -68.4,-632.05 -31.13,207.69 -50.79,482.48 -71.48,836.18l0.03 2.45c0,48.9 -49.19,88.59 -109.79,88.59l-123.62 0 0 -0.35c-59.81,0 -108.65,-38.81 -109.31,-87.21 -11.23,-588.15 -40.95,-1102.36 -82.24,-1467.32 -35.13,-309.89 -40.16,-279.26 -40.79,-285.27 0,4.4 -5.47,-24.59 -40.57,285.27 -41.2,363.42 -70.85,874.9 -82.08,1459.9 0.16,2.11 0.25,4.25 0.25,6.38 0,48.9 -49.15,88.59 -109.76,88.59l-71.8 0 0 -0.35c-59.78,0 -108.69,-38.81 -109.38,-87.21 -11.13,-588.15 -40.85,-1102.36 -82.24,-1467.32 -35.07,-309.89 -39.31,-284.33 -41.48,-284.01 -2.17,-0.31 -4.78,-25.88 -39.85,284.01 -41.17,363.42 -70.82,874.86 -82.08,1459.9 0.19,2.11 0.28,4.25 0.28,6.38 0,48.9 -49.15,88.59 -109.79,88.59l-123.59 0 0 -0.25c-58.15,0 -106.61,-36.83 -109.38,-84.19 -20.79,-356.63 -41.01,-631.8 -72.33,-840.77 -8.46,7.42 -50.76,427.86 -67.93,629.91 -45.79,537.49 -78.28,1171.17 -78.28,1553.46 0,76.89 -0.63,-31.98 -0.38,26.98l1.01 242.66c-0.22,48.71 -49.37,88.09 -109.79,87.9l-268.16 -1.29c-2.99,0.19 -6.01,0.31 -9.03,0.31 -60.66,0 -109.82,-39.69 -109.82,-88.59l0 -1675.26c0,-272.12 -53.34,-517.92 -139.32,-694.66 -73.81,-151.77 -163.56,-245.96 -251.46,-245.96 -87.96,0 -177.72,94.19 -251.52,245.93 -85.92,176.74 -139.29,422.54 -139.29,694.7l-2.36 1676.58 -0.44 0c0.03,47.93 -47.55,87.3 -107.24,88.24l-326.43 0c-3.84,0.31 -7.7,0.5 -11.67,0.5 -60.63,0 -109.76,-39.69 -109.76,-88.62l2.33 -2437.38c-1235.77,193.97 -1523.49,1567.04 -1464.84,2425.93 0.57,3.59 0.85,7.23 0.85,10.94 0,48.93 -49.19,88.62 -109.82,88.62l-514.53 0.41z"/>
    <g id="_1950866024784" style="">
      <path class="fil4" d="M17052.04 10199.27c-0.47,-591.26 -0.22,-1479.9 0,-1776.33 0,-788.98 -871.41,-1183.44 -1307.09,-1183.44 -233.35,0.91 -552.36,107.33 -653.66,160.45 0,-53.12 0,-133.44 0,-160.45 -217.06,0.69 -542.83,0.44 -651.36,0 -0.22,986.88 -0.22,2466.53 0,2959.77 212.84,0 532.11,0 638.53,0 4.91,0 10.94,0 12.83,0 0,-591.73 0,-1480.12 0,-1776.33 0,-394.49 435.69,-591.73 653.66,-591.73 432.45,0 648.78,394.49 648.78,591.73 0,592.87 0,1480.59 0,1776.33l658.31 0z"/>
      <path class="fil4" d="M13126.11 9014.89c0,394.49 -432.7,591.7 -648.78,591.7 -435.94,0 -653.69,-394.46 -653.69,-591.7 -0.44,-197.24 -0.22,-493.24 0,-591.73 0,-394.49 433.61,-590.79 650.64,-590.1 434.55,-1.16 651.83,392.85 651.83,590.1l658.31 0c0,-788.95 -871.41,-1183.44 -1307.09,-1183.44 -870.02,0 -1305.02,679.03 -1305.02,1018.58 0,109.91 0,559.34 0,756.59 0,789.64 870.02,1184.6 1305.02,1184.6 871.41,0 1307.09,-789.89 1307.09,-1184.6 -216.81,0 -547.23,0 -658.31,0z"/>
      <polygon class="fil4" points="16033.11,5579.74 17051.95,2619.75 16324.01,2619.5 15693.03,4453.35 15060.82,2619.97 14332.88,2619.75 15353.42,5579.52 "/>
      <path class="fil5" d="M11991.51 4395.14c0,394.46 453.52,591.7 680.42,591.7 280.46,0 545.63,-217.5 608.21,-326.03l608.65 264.8c-250.9,435.94 -936.66,653.88 -1216.87,653.88 -905.62,0 -1358.45,-789.17 -1358.45,-1183.91 0,-197.21 0,-493.21 -0.22,-591.7 0.22,-789.42 905.84,-1184.13 1358.89,-1184.13 906.88,0 1360.4,790.11 1360.15,1185.04 0.25,197.28 0.25,492.07 0.25,590.35l-685.29 0 -1355.74 0zm1355.74 -591.73c-450.37,0 -1129.13,0 -1355.74,0 0.72,-394.02 454.02,-591.48 680.42,-591.7 450.12,0 675.32,394.49 675.32,591.7z"/>
      <path class="fil4" d="M10628.44 4398.63l-0.47 -1775.17c-0.22,-788.95 -910.24,-1183.91 -1364.96,-1183.91l-2035.97 -0.69 1.23 4142.3 2035.94 0.44c909.74,0.47 1364.49,-788.48 1364.23,-1182.96zm-682.84 -1775.39l1.45 0 -0.97 1775.17 0.75 0c-0.25,394.46 -452.83,591.7 -679,591.48l-1359.86 -0.47 -0.97 -2958.61 1359.89 0.47c452.32,0.22 678.72,394.71 678.72,591.95z"/>
      <line class="fil6" x1="10630.65" y1="2623.46" x2="10627.97" y2="2623.46"/>
      <path class="fil7" d="M9285.31 6056.72c-679,-0.22 -1696.58,-0.44 -2035.72,-0.66"/>
      <path class="fil5" d="M9205.28 10201.59c874.39,0.47 1311.27,-788.7 1311.27,-1183.22 0,-356.28 -296.21,-770.08 -444.3,-888.14 295.96,-235.45 443.83,-709.57 443.83,-887.73 -0.25,-789.17 -874.64,-1183.91 -1312,-1184.13 -652.27,-0.22 -1629.85,-0.47 -1955.62,-0.69l0 4143.43 1956.82 0.47zm-1305.49 -593.34c436.16,0.22 1090.29,0.47 1308.26,0.47 435.25,0.22 652.74,-394.27 652.49,-591.51 0,-394.49 -435.22,-591.92 -652.96,-591.92 -435.91,-0.25 -1090.03,-0.47 -1308.26,-0.47l0.47 1183.44zm0 -1775.17c436.16,0 1090.29,0.25 1308.26,0.47 435.25,0 652.74,-394.24 652.49,-591.48 0,-394.71 -435.22,-591.95 -652.96,-592.21 -435.91,0 -1090.03,-0.22 -1308.26,-0.22l0.47 1183.44z"/>
    </g>
  </g>
</svg>