<svg id="Capa_1" data-name="Capa 1" xmlns="http://www.w3.org/2000/svg" viewBox="0 0 126 35"><defs><style>.cls-1{fill:#06d6a0;}.cls-2{fill:#ef476f;}</style></defs><rect class="cls-1" x="2.07" y="1.25" width="121.87" height="32.5"/><path class="cls-2" d="M16.85,23.07V10.47H22a5,5,0,0,1,2.06.41A3.23,3.23,0,0,1,25.4,12a3.11,3.11,0,0,1,.51,1.79V14a3,3,0,0,1-.6,2,2.84,2.84,0,0,1-1.4,1v.26a1.54,1.54,0,0,1,1.07.42,1.6,1.6,0,0,1,.42,1.21v4.23H23.91V19a1.07,1.07,0,0,0-.3-.82,1.19,1.19,0,0,0-.89-.29H18.36v5.16Zm1.51-6.53H21.8a2.8,2.8,0,0,0,1.92-.6,2.15,2.15,0,0,0,.67-1.69v-.12a2.16,2.16,0,0,0-.66-1.68,2.76,2.76,0,0,0-1.93-.61H18.36Z"/><path class="cls-2" d="M32.3,23.33A4.66,4.66,0,0,1,30,22.76a3.94,3.94,0,0,1-1.57-1.59,5,5,0,0,1-.56-2.38v-.22a4.94,4.94,0,0,1,.56-2.39,4,4,0,0,1,1.55-1.59,4.8,4.8,0,0,1,4.46,0,3.78,3.78,0,0,1,1.5,1.52,4.79,4.79,0,0,1,.54,2.32V19H29.25a2.94,2.94,0,0,0,3.08,3,2.61,2.61,0,0,0,1.75-.53A3.44,3.44,0,0,0,35,20.3l1.23.6A5.17,5.17,0,0,1,35.49,22a3.87,3.87,0,0,1-1.24.94A4.43,4.43,0,0,1,32.3,23.33Zm-3-5.46H35A2.64,2.64,0,0,0,34.16,16a2.84,2.84,0,0,0-1.95-.68,2.88,2.88,0,0,0-2,.68A3.05,3.05,0,0,0,29.27,17.87Z"/><path class="cls-2" d="M41.62,23.33A4.2,4.2,0,0,1,39.94,23a2.69,2.69,0,0,1-1.18-.93,2.53,2.53,0,0,1-.44-1.5,2.41,2.41,0,0,1,.44-1.48,2.53,2.53,0,0,1,1.18-.88,4.6,4.6,0,0,1,1.7-.3h3v-.65a2,2,0,0,0-.55-1.48,2.24,2.24,0,0,0-1.63-.54,2.48,2.48,0,0,0-1.66.52A2.67,2.67,0,0,0,40,17.13l-1.33-.43a4,4,0,0,1,.68-1.34,3.45,3.45,0,0,1,1.26-1A4.29,4.29,0,0,1,42.45,14a3.7,3.7,0,0,1,2.62.87A3.19,3.19,0,0,1,46,17.35v4c0,.36.17.54.5.54h.81v1.2H46.08a1.36,1.36,0,0,1-.95-.33,1.15,1.15,0,0,1-.36-.89v-.09h-.22a4,4,0,0,1-.53.71,2.38,2.38,0,0,1-.91.61A3.7,3.7,0,0,1,41.62,23.33Zm.16-1.23a2.86,2.86,0,0,0,2-.74,2.74,2.74,0,0,0,.79-2.1v-.2H41.69a2.4,2.4,0,0,0-1.39.37,1.24,1.24,0,0,0-.55,1.11,1.36,1.36,0,0,0,.56,1.15A2.48,2.48,0,0,0,41.78,22.1Z"/><path class="cls-2" d="M52.74,23.33a4.14,4.14,0,0,1-2.08-.54,3.9,3.9,0,0,1-1.52-1.57,5,5,0,0,1-.55-2.43v-.23a5,5,0,0,1,.55-2.43A4,4,0,0,1,52.74,14a4.45,4.45,0,0,1,1.56.24,3.09,3.09,0,0,1,1,.62,3,3,0,0,1,.61.78h.25V10.47h1.42v12.6H56.24V21.62H56a3.43,3.43,0,0,1-1.11,1.18A3.73,3.73,0,0,1,52.74,23.33Zm.38-1.26a3,3,0,0,0,2.22-.88,3.33,3.33,0,0,0,.86-2.44v-.16a3.36,3.36,0,0,0-.86-2.44,3,3,0,0,0-2.22-.87,3,3,0,0,0-2.22.87A3.32,3.32,0,0,0,50,18.59v.16a3.29,3.29,0,0,0,.87,2.44A3,3,0,0,0,53.12,22.07Z"/><path class="cls-2" d="M65.23,23.07v-8.8h1.39v1.1h.25a2.59,2.59,0,0,1,.83-.86,2.77,2.77,0,0,1,1.62-.4,2.86,2.86,0,0,1,1.67.45,2.69,2.69,0,0,1,.92,1.1h.25a3,3,0,0,1,.93-1.1,2.93,2.93,0,0,1,1.74-.45,3.22,3.22,0,0,1,1.55.36,2.73,2.73,0,0,1,1.05,1,3.21,3.21,0,0,1,.39,1.62v5.95H76.39V17.24a1.87,1.87,0,0,0-.51-1.39,1.9,1.9,0,0,0-1.43-.52,2.12,2.12,0,0,0-1.59.63,2.47,2.47,0,0,0-.62,1.82v5.29H70.81V17.24a1.87,1.87,0,0,0-.51-1.39,1.9,1.9,0,0,0-1.43-.52,2.12,2.12,0,0,0-1.59.63,2.47,2.47,0,0,0-.62,1.82v5.29Z"/><path class="cls-2" d="M84.78,23.33a4.83,4.83,0,0,1-2.35-.56,4,4,0,0,1-1.58-1.58,4.81,4.81,0,0,1-.57-2.4v-.23a4.87,4.87,0,0,1,.57-2.4,4,4,0,0,1,1.58-1.58,5.21,5.21,0,0,1,4.7,0,4,4,0,0,1,1.59,1.58,5,5,0,0,1,.56,2.4v.23a4.92,4.92,0,0,1-.56,2.4,4,4,0,0,1-1.59,1.58A4.83,4.83,0,0,1,84.78,23.33Zm0-1.28A2.92,2.92,0,0,0,87,21.16a3.38,3.38,0,0,0,.84-2.41v-.16a3.34,3.34,0,0,0-.84-2.4,3.25,3.25,0,0,0-4.47,0,3.35,3.35,0,0,0-.85,2.4v.16a3.39,3.39,0,0,0,.85,2.41A2.94,2.94,0,0,0,84.78,22.05Z"/><path class="cls-2" d="M91.84,23.07v-8.8h1.38v1.08h.26a1.58,1.58,0,0,1,.72-.84,2.6,2.6,0,0,1,1.27-.27h1v1.29H95.38a2.21,2.21,0,0,0-1.53.53,2.14,2.14,0,0,0-.59,1.65v5.36Z"/><path class="cls-2" d="M102.33,23.33a4.66,4.66,0,0,1-2.34-.57,4,4,0,0,1-1.56-1.59,4.84,4.84,0,0,1-.56-2.38v-.22a4.83,4.83,0,0,1,.56-2.39A3.93,3.93,0,0,1,100,14.59a4.82,4.82,0,0,1,4.47,0,3.82,3.82,0,0,1,1.49,1.52,4.79,4.79,0,0,1,.54,2.32V19H99.29a2.94,2.94,0,0,0,3.08,3,2.58,2.58,0,0,0,1.74-.53,3.46,3.46,0,0,0,.94-1.24l1.22.6a5.1,5.1,0,0,1-.74,1.11,3.87,3.87,0,0,1-1.24.94A4.47,4.47,0,0,1,102.33,23.33Zm-3-5.46H105A2.67,2.67,0,0,0,104.2,16a2.87,2.87,0,0,0-2-.68,2.92,2.92,0,0,0-2,.68A3.09,3.09,0,0,0,99.31,17.87Z"/></svg>