<svg id="Capa_1" data-name="Capa 1" xmlns="http://www.w3.org/2000/svg" viewBox="0 0 268 71"><defs><style>.cls-1{fill:#ffd166;}</style></defs><path class="cls-1" d="M5.79,6.53V64.47H262.21V6.53ZM85.2,32a3.51,3.51,0,0,0,0,7v7a3.52,3.52,0,0,1-3.51,3.51H53.59A3.52,3.52,0,0,1,50.08,46V39a3.51,3.51,0,0,0,0-7V25a3.49,3.49,0,0,1,3.49-3.51h28.1A3.51,3.51,0,0,1,85.2,25Zm35-3.93h-6.42V46h-3.23v-18H104.1V25.14h16.07Zm6.15,18h-3.23V25.14h3.23Zm20-13.35H143.1v-.27A5.18,5.18,0,0,0,142,29a4.36,4.36,0,0,0-3.51-1.34,4.84,4.84,0,0,0-3.73,1.44,5.68,5.68,0,0,0-1.35,4v5a5.68,5.68,0,0,0,1.35,4,4.82,4.82,0,0,0,3.73,1.46A4.34,4.34,0,0,0,142,42.2a5.17,5.17,0,0,0,1.15-3.45v-.5h3.19v.41a7.84,7.84,0,0,1-2,5.71,7.78,7.78,0,0,1-5.81,2.09,8.31,8.31,0,0,1-6.06-2.17A8.29,8.29,0,0,1,130.14,38v-4.9a8.29,8.29,0,0,1,2.24-6.25,8.31,8.31,0,0,1,6.06-2.17,7.78,7.78,0,0,1,5.81,2.09,7.8,7.8,0,0,1,2,5.7ZM161.58,46l-8-8.87h-.48V46h-3.22V25.14h3.22v8.69h.48l7.79-8.69h4.21l-9.43,10.3L165.91,46Zm20.06,0H168.33V25.14h13.16v2.92h-9.94v6h9.11V37h-9.11v6.12h10.09Zm18-18h-6.42V46H190v-18h-6.42V25.14h16.07ZM216,43.47a6.25,6.25,0,0,1-2.68,2.2,10.9,10.9,0,0,1-8.27-.05,6.58,6.58,0,0,1-2.85-2.46,7.34,7.34,0,0,1-1-4v-.75h3.2v.75a4,4,0,0,0,1.33,3.31,5.31,5.31,0,0,0,3.53,1.11,5.18,5.18,0,0,0,3.38-.94,3,3,0,0,0,1.13-2.43,2.4,2.4,0,0,0-.54-1.62,3.67,3.67,0,0,0-1.52-1,19,19,0,0,0-2.36-.7l-1.1-.27a17,17,0,0,1-3.48-1.18,5.53,5.53,0,0,1-2.28-1.86,5.12,5.12,0,0,1-.81-3,5.38,5.38,0,0,1,.91-3.16,5.93,5.93,0,0,1,2.52-2,9.27,9.27,0,0,1,3.8-.72,9.61,9.61,0,0,1,3.89.75,6,6,0,0,1,2.7,2.2,6.45,6.45,0,0,1,1,3.68v1.07h-3.2V31.35a3.87,3.87,0,0,0-.55-2.18A3.12,3.12,0,0,0,211.17,28a6.17,6.17,0,0,0-2.29-.39,4.89,4.89,0,0,0-3,.79,2.6,2.6,0,0,0-1.06,2.19,2.53,2.53,0,0,0,.47,1.57,3.29,3.29,0,0,0,1.36,1,12.25,12.25,0,0,0,2.24.69l1.1.27a18.16,18.16,0,0,1,3.58,1.14,6.22,6.22,0,0,1,2.45,1.9,5,5,0,0,1,.9,3.08A5.8,5.8,0,0,1,216,43.47Z"/><path class="cls-1" d="M53.61,29.42a7,7,0,0,1,0,12.16V46h28.1V41.58a7,7,0,0,1,0-12.16V25H53.59Zm12.27-2.7H69.4v3.51H65.88Zm0,7H69.4v3.52H65.88Zm0,7H69.4v3.51H65.88Z"/></svg>