<?xml version="1.0" encoding="UTF-8"?>
<!DOCTYPE svg PUBLIC "-//W3C//DTD SVG 1.1//EN" "http://www.w3.org/Graphics/SVG/1.1/DTD/svg11.dtd">
<!-- Creator: CorelDRAW 2019 (64-Bit) -->
<svg xmlns="http://www.w3.org/2000/svg" xml:space="preserve" width="68.2076mm" height="46.6813mm" version="1.1" style="shape-rendering:geometricPrecision; text-rendering:geometricPrecision; image-rendering:optimizeQuality; fill-rule:evenodd; clip-rule:evenodd"
viewBox="0 0 13464.25 9214.94"
 xmlns:xlink="http://www.w3.org/1999/xlink"
 xmlns:xodm="http://www.corel.com/coreldraw/odm/2003">
 <defs>
  <style type="text/css">
   <![CDATA[
    .fil6 {fill:none}
    .fil7 {fill:none;fill-rule:nonzero}
    .fil5 {fill:#4698CB}
    .fil8 {fill:#FEFEFE;fill-rule:nonzero}
    .fil4 {fill:#4698CB;fill-rule:nonzero}
    .fil3 {fill:url(#id0)}
    .fil0 {fill:url(#id1)}
    .fil2 {fill:url(#id2)}
    .fil1 {fill:url(#id3)}
   ]]>
  </style>
  <linearGradient id="id0" gradientUnits="userSpaceOnUse" x1="-0" y1="3256.58" x2="3679.2" y2="3256.58">
   <stop offset="0" style="stop-opacity:1; stop-color:#30BAEC"/>
   <stop offset="1" style="stop-opacity:1; stop-color:#002454"/>
  </linearGradient>
  <linearGradient id="id1" gradientUnits="userSpaceOnUse" x1="9739" y1="2315.51" x2="12704.14" y2="2315.51">
   <stop offset="0" style="stop-opacity:1; stop-color:#30BAEC"/>
   <stop offset="1" style="stop-opacity:1; stop-color:#010039"/>
  </linearGradient>
  <linearGradient id="id2" gradientUnits="userSpaceOnUse" xlink:href="#id1" x1="760.09" y1="6899.42" x2="3725.25" y2="6899.42">
  </linearGradient>
  <linearGradient id="id3" gradientUnits="userSpaceOnUse" xlink:href="#id0" x1="9785.05" y1="5958.33" x2="13464.23" y2="5958.33">
  </linearGradient>
 </defs>
 <g id="Layer_x0020_1">
  <metadata id="CorelCorpID_0Corel-Layer"/>
  <g id="_1951114156624">
   <path class="fil0" d="M12512.48 3722.29l-451.85 908.74 -800.66 -1596.76 -1521 -3033.36 935.01 -0.91 0.1 0.91c355.4,0 680.22,200.95 838.9,518.97l0.18 -0.08 1092.38 2181.93c64.85,130.01 98.62,273.28 98.62,418.55 0,145.27 -33.78,288.54 -98.62,418.51l-93.05 183.5z"/>
   <path class="fil1" d="M12605.54 3538.79l-544.91 1092.24 -769.59 1549.93 -736.4 1483.07 -769.59 1549.93 926.23 0.95 0.12 -0.91c355.4,0 680.22,-200.97 838.9,-518.99l0.18 0.1 522.8 -1049.8 522.78 -1049.8c9.28,-18.61 17.94,-37.51 25.94,-56.63l220.87 -443.5 522.78 -1049.8c32.43,-65 57.09,-133.32 73.63,-203.54 16.54,-70.24 24.99,-142.37 24.99,-215.01 0,-72.62 -8.45,-144.75 -24.99,-214.97 -16.54,-70.24 -41.2,-138.56 -73.61,-203.54l-49.09 -96.81 -49.09 -96.81 -226.4 -449.25 -435.53 -863.95c64.85,130.01 98.62,273.28 98.62,418.55 0,145.27 -33.78,288.54 -98.62,418.51z"/>
  </g>
  <g id="_1951114158960">
   <path class="fil2" d="M951.75 5492.63l451.87 -908.74 800.64 1596.76 1521 3033.36 -934.99 0.93 -0.12 -0.93c-355.4,0 -680.22,-200.95 -838.9,-518.97l-0.18 0.1 -1092.38 -2181.95c-64.85,-129.99 -98.6,-273.28 -98.6,-418.55 0,-145.25 33.76,-288.52 98.6,-418.51l93.05 -183.5z"/>
   <path class="fil3" d="M858.69 5676.13l544.93 -1092.24 769.59 -1549.93 736.38 -1483.07 769.59 -1549.93 -926.23 -0.95 -0.1 0.93c-355.4,0 -680.24,200.95 -838.9,518.97l-0.18 -0.1 -522.8 1049.8 -522.8 1049.82c-9.28,18.61 -17.92,37.49 -25.94,56.61l-220.85 443.5 -522.8 1049.8c-32.43,65 -57.07,133.32 -73.61,203.56 -16.56,70.22 -24.99,142.37 -24.99,214.99 0,72.62 8.43,144.75 24.97,214.99 16.54,70.22 41.2,138.54 73.63,203.52l49.09 96.83 49.07 96.79 226.42 449.25 435.51 863.95c-64.85,-129.99 -98.6,-273.28 -98.6,-418.55 0,-145.25 33.76,-288.52 98.6,-418.51z"/>
  </g>
  <g id="_1951114157488">
   <path class="fil4" d="M9958.75 7483.67c-0.32,-388.35 -0.16,-972 0,-1166.72 0,-518.2 -572.34,-777.31 -858.52,-777.31 -153.26,0.61 -362.8,70.51 -429.35,105.39 0,-34.88 0,-87.65 0,-105.39 -142.54,0.45 -356.53,0.32 -427.81,0 -0.16,648.21 -0.16,1620.07 0,1944.03 139.8,0 349.5,0 419.4,0 3.22,0 7.19,0 8.41,0 0,-388.64 0,-972.16 0,-1166.72 0,-259.11 286.17,-388.64 429.35,-388.64 284.02,0 426.11,259.09 426.11,388.64 0,389.41 0,972.48 0,1166.72l432.41 0z"/>
   <path class="fil4" d="M7380.12 6705.75c0,259.11 -284.18,388.66 -426.13,388.66 -286.31,0 -429.33,-259.11 -429.33,-388.66 -0.32,-129.55 -0.16,-323.95 0,-388.64 0,-259.11 284.79,-388.05 427.35,-387.58 285.4,-0.77 428.1,258.02 428.1,387.58l432.41 0c0,-518.22 -572.36,-777.31 -858.54,-777.31 -571.42,0 -857.14,446.01 -857.14,669.01 0,72.19 0,367.38 0,496.94 0,518.67 571.44,778.08 857.14,778.08 572.36,0 858.54,-518.81 858.54,-778.08 -142.41,0 -359.45,0 -432.41,0z"/>
   <polygon class="fil4" points="9289.5,4449.5 9958.67,2505.34 9480.54,2505.18 9066.12,3709.68 8650.89,2505.47 8172.76,2505.34 8843.06,4449.34 "/>
   <path class="fil5" d="M6634.91 3671.42c0,259.11 297.88,388.66 446.9,388.66 184.21,0 358.4,-142.86 399.5,-214.14l399.78 173.91c-164.79,286.33 -615.22,429.49 -799.28,429.49 -594.81,0 -892.23,-518.34 -892.23,-777.6 0,-129.55 0,-323.95 -0.16,-388.64 0.16,-518.51 594.99,-777.76 892.55,-777.76 595.64,0 893.54,518.97 893.38,778.35 0.16,129.55 0.16,323.2 0.16,387.74l-450.11 0 -890.48 0zm890.48 -388.64c-295.81,0 -741.62,0 -890.48,0 0.47,-258.79 298.21,-388.49 446.9,-388.64 295.67,0 443.58,259.11 443.58,388.64z"/>
   <path class="fil4" d="M5739.63 3673.73l-0.32 -1165.97c-0.16,-518.2 -597.87,-777.6 -896.54,-777.6l-1337.25 -0.45 0.79 2720.72 1337.25 0.3c597.53,0.3 896.22,-517.9 896.06,-776.99zm-448.51 -1166.11l0.97 0 -0.65 1165.95 0.49 0c-0.16,259.11 -297.42,388.64 -445.97,388.51l-893.2 -0.32 -0.63 -1943.26 893.2 0.3c297.09,0.16 445.79,259.27 445.79,388.82z"/>
   <line class="fil6" x1="5741.07" y1="2507.78" x2="5739.32" y2= "2507.78" />
   <path class="fil7" d="M3947.57 5928.45c286.47,0 716.11,0.16 859.29,0.32 285.86,0 428.74,-258.95 428.56,-388.51 0,-259.25 -285.86,-388.8 -428.87,-388.96 -286.31,0 -715.95,-0.14 -859.27,-0.14l0.3 777.29"/>
   <path class="fil7" d="M3947.57 7094.42c286.47,0.14 716.11,0.3 859.29,0.3 285.86,0.16 428.74,-258.95 428.56,-388.51 0,-259.09 -285.86,-388.78 -428.87,-388.78 -286.31,-0.18 -715.95,-0.32 -859.27,-0.32l0.3 777.31"/>
   <path class="fil7" d="M4857.43 4762.79c-445.97,-0.14 -1114.35,-0.3 -1337.1,-0.45"/>
   <path class="fil8" d="M3947.57 5928.45c286.47,0 716.11,0.16 859.29,0.32 285.86,0 428.74,-258.95 428.56,-388.51 0,-259.25 -285.86,-388.8 -428.87,-388.96 -286.31,0 -715.95,-0.14 -859.27,-0.14l0.3 777.29z"/>
   <path class="fil8" d="M3947.57 7094.42c286.47,0.14 716.11,0.3 859.29,0.3 285.86,0.16 428.74,-258.95 428.56,-388.51 0,-259.09 -285.86,-388.78 -428.87,-388.78 -286.31,-0.18 -715.95,-0.32 -859.27,-0.32l0.3 777.31z"/>
   <path class="fil5" d="M4804.86 7485.21c574.32,0.32 861.26,-518.04 861.26,-777.15 0,-234.02 -194.56,-505.82 -291.82,-583.36 194.38,-154.64 291.5,-466.04 291.5,-583.06 -0.14,-518.34 -574.48,-777.6 -861.71,-777.76 -428.44,-0.16 -1070.53,-0.3 -1284.51,-0.45l0 2721.47 1285.28 0.32zm-857.47 -389.71c286.49,0.14 716.13,0.3 859.31,0.3 285.86,0.14 428.72,-258.95 428.56,-388.51 0,-259.11 -285.88,-388.8 -428.87,-388.8 -286.33,-0.16 -715.97,-0.32 -859.29,-0.32l0.3 777.33zm0 -1165.97c286.49,0 716.13,0.16 859.31,0.32 285.86,0 428.72,-258.95 428.56,-388.51 0,-259.25 -285.88,-388.8 -428.87,-388.96 -286.33,0 -715.97,-0.16 -859.29,-0.16l0.3 777.31z"/>
  </g>
 </g>
</svg>
