<svg id="Capa_1" data-name="Capa 1" xmlns="http://www.w3.org/2000/svg" viewBox="0 0 509 147"><defs><style>.cls-1{fill:#e00;}</style></defs><path class="cls-1" d="M119.26,81.81c9.45,0,23.13-2,23.13-13.2a10.64,10.64,0,0,0-.23-2.58l-5.63-24.46c-1.31-5.38-2.45-7.82-11.9-12.55-7.33-3.74-23.29-9.94-28-9.94-4.4,0-5.7,5.71-10.91,5.71-5,0-8.8-4.24-13.53-4.24-4.56,0-7.49,3.1-9.77,9.45,0,0-6.36,17.92-7.17,20.53A4.79,4.79,0,0,0,55.06,52c0,7,27.43,29.82,64.2,29.82m24.6-8.64c1.3,6.2,1.3,6.85,1.3,7.66,0,10.59-11.89,16.46-27.53,16.46-35.36,0-66.31-20.69-66.31-34.38a14,14,0,0,1,1.14-5.54C39.75,58,23.3,60.3,23.3,74.8c0,23.79,56.37,53.12,101,53.12,34.21,0,42.85-15.48,42.85-27.7,0-9.61-8.31-20.53-23.3-27"/><path d="M143.86,73.17c1.3,6.2,1.3,6.85,1.3,7.66,0,10.59-11.89,16.46-27.53,16.46-35.36,0-66.31-20.69-66.31-34.38a14,14,0,0,1,1.14-5.54l2.77-6.84A4.79,4.79,0,0,0,55.06,52c0,7,27.43,29.82,64.2,29.82,9.45,0,23.13-2,23.13-13.2a10.64,10.64,0,0,0-.23-2.58Z"/><path d="M461.07,88.85c0,9,5.4,13.35,15.26,13.35a39.83,39.83,0,0,0,9-1.27V90.51a18.63,18.63,0,0,1-5.8.88c-4.06,0-5.57-1.27-5.57-5.09v-16H485.7V59.6H473.94V46l-12.87,2.79V59.6h-8.51V70.33h8.51Zm-40,.23c0-2.78,2.78-4.13,7-4.13a32.7,32.7,0,0,1,7.63,1v5.41a16.29,16.29,0,0,1-8,2c-4.13,0-6.6-1.59-6.6-4.22M425,102.36a19.74,19.74,0,0,0,11.61-3.26v2.54H449.3V74.7c0-10.26-6.91-15.9-18.44-15.9a46.79,46.79,0,0,0-19.63,4.61l4.61,9.46c4.93-2.07,9.06-3.34,12.72-3.34,5.32,0,8,2.07,8,6.28v2.07a37.11,37.11,0,0,0-9.54-1.2c-10.81,0-17.33,4.54-17.33,12.64,0,7.39,5.88,13,15.26,13m-69.86-.72h13.67V79.86h22.89v21.78h13.67V46H391.68V67.39H368.79V46H355.12ZM303,80.58c0-6,4.77-10.65,11.05-10.65a13,13,0,0,1,8.9,3.26v14.7a12.33,12.33,0,0,1-8.9,3.34A10.7,10.7,0,0,1,303,80.58m20.11,21.06h12.72V43.22L323,46V61.82a21.67,21.67,0,1,0-11.13,40.38,18.93,18.93,0,0,0,11.29-3.66ZM264.79,69.37a9.31,9.31,0,0,1,8.82,6.68H256.05a8.76,8.76,0,0,1,8.74-6.68m-21.7,11.29c0,12.24,10,21.78,22.89,21.78a25.24,25.24,0,0,0,17.57-6.36L275,88.53a11.39,11.39,0,0,1-8.42,3.18A10.87,10.87,0,0,1,256.29,85h30V81.85c0-13.35-9-23-21.22-23a21.6,21.6,0,0,0-21.94,21.78m-22.17-23c4.53,0,7.07,2.86,7.07,6.28s-2.54,6.28-7.07,6.28H207.41V57.69Zm-27.19,44h13.68V81.37h10.41l10.49,20.27h15.26L231.33,79.39a16.83,16.83,0,0,0,10.49-15.66c0-10-7.87-17.73-19.63-17.73H193.73Z"/></svg>