<?xml version="1.0" encoding="UTF-8"?>
<svg xmlns="http://www.w3.org/2000/svg" viewBox="0 0 50 50" width="50px" height="50px">
  <g id="surface55360881">
    <path style=" stroke:none;fill-rule:nonzero;fill:rgb(255%,255%,255%);fill-opacity:1;"
          d="M 9 4 C 6.25 4 4 6.25 4 9 L 4 41 C 4 43.75 6.25 46 9 46 L 41 46 C 43.75 46 46 43.75 46 41 L 46 9 C 46 6.25 43.75 4 41 4 Z M 9 6 L 41 6 C 42.667969 6 44 7.332031 44 9 L 44 41 C 44 42.667969 42.667969 44 41 44 L 9 44 C 7.332031 44 6 42.667969 6 41 L 6 9 C 6 7.332031 7.332031 6 9 6 Z M 16 17 C 11.589844 17 8 20.589844 8 25 C 8 29.410156 11.589844 33 16 33 C 20.410156 33 24 29.410156 24 25 C 24 20.589844 20.410156 17 16 17 Z M 34 17 C 29.589844 17 26 20.589844 26 25 C 26 29.410156 29.589844 33 34 33 C 38.410156 33 42 29.410156 42 25 C 42 20.589844 38.410156 17 34 17 Z M 34 17 "/>
    <path style=" stroke:none;fill-rule:nonzero;fill:rgb(255%,255%,255%);fill-opacity:1;"
          d="M 19.914062 11.515625 L 19.914062 12.320312 L 17.992188 12.320312 L 17.992188 14.304688 L 16.992188 14.304688 L 16.992188 9.445312 L 20.15625 9.445312 L 20.15625 10.257812 L 17.992188 10.257812 L 17.992188 11.515625 Z M 21.691406 9.179688 L 21.691406 14.304688 L 20.726562 14.304688 L 20.726562 9.179688 Z M 23.503906 10.695312 L 23.503906 14.304688 L 22.539062 14.304688 L 22.539062 10.695312 Z M 22.480469 9.757812 C 22.480469 9.617188 22.527344 9.496094 22.625 9.40625 C 22.722656 9.3125 22.851562 9.265625 23.019531 9.265625 C 23.1875 9.265625 23.316406 9.3125 23.414062 9.40625 C 23.511719 9.496094 23.5625 9.617188 23.5625 9.757812 C 23.5625 9.90625 23.511719 10.027344 23.410156 10.121094 C 23.3125 10.214844 23.183594 10.261719 23.019531 10.261719 C 22.859375 10.261719 22.726562 10.214844 22.628906 10.121094 C 22.53125 10.027344 22.480469 9.90625 22.480469 9.757812 Z M 25.800781 13.59375 C 25.980469 13.59375 26.125 13.546875 26.234375 13.449219 C 26.347656 13.351562 26.40625 13.222656 26.40625 13.058594 L 27.3125 13.058594 C 27.3125 13.304688 27.246094 13.527344 27.113281 13.730469 C 26.980469 13.933594 26.800781 14.09375 26.574219 14.203125 C 26.347656 14.316406 26.09375 14.371094 25.816406 14.371094 C 25.300781 14.371094 24.894531 14.207031 24.59375 13.878906 C 24.296875 13.550781 24.148438 13.097656 24.148438 12.523438 L 24.148438 12.457031 C 24.148438 11.902344 24.296875 11.457031 24.59375 11.125 C 24.890625 10.792969 25.292969 10.628906 25.808594 10.628906 C 26.261719 10.628906 26.625 10.757812 26.898438 11.015625 C 27.171875 11.269531 27.308594 11.613281 27.3125 12.039062 L 26.40625 12.039062 C 26.402344 11.851562 26.347656 11.703125 26.234375 11.585938 C 26.125 11.46875 25.976562 11.410156 25.792969 11.410156 C 25.570312 11.410156 25.398438 11.492188 25.285156 11.65625 C 25.171875 11.820312 25.113281 12.085938 25.113281 12.453125 L 25.113281 12.550781 C 25.113281 12.921875 25.167969 13.1875 25.28125 13.351562 C 25.394531 13.515625 25.570312 13.59375 25.800781 13.59375 Z M 30.101562 14.304688 L 29.175781 12.859375 L 28.828125 13.203125 L 28.828125 14.304688 L 27.863281 14.304688 L 27.863281 9.179688 L 28.828125 9.179688 L 28.828125 12.019531 L 29.015625 11.78125 L 29.9375 10.695312 L 31.097656 10.695312 L 29.792969 12.203125 L 31.210938 14.304688 Z M 33.558594 10.671875 L 33.546875 11.601562 C 33.414062 11.582031 33.296875 11.570312 33.199219 11.570312 C 32.832031 11.570312 32.59375 11.695312 32.480469 11.945312 L 32.480469 14.304688 L 31.515625 14.304688 L 31.515625 10.695312 L 32.429688 10.695312 L 32.453125 11.125 C 32.648438 10.792969 32.914062 10.628906 33.257812 10.628906 C 33.363281 10.628906 33.464844 10.644531 33.558594 10.671875 Z M 33.558594 10.671875 "/>
  </g>
</svg>
