<svg id="Capa_1" data-name="Capa 1" xmlns="http://www.w3.org/2000/svg" viewBox="0 0 164 76"><defs><style>.cls-1{fill:#fffcf9;}</style></defs><polygon class="cls-1" points="93.57 8.58 154.72 8.58 154.72 50.47 154.72 50.47 154.72 8.58 93.57 8.58 93.57 8.58"/><rect class="cls-1" x="8.84" y="8.58" width="21.96"/><polygon class="cls-1" points="9.93 63.74 11.94 63.74 11.94 69.39 12.64 69.39 12.64 63.74 14.66 63.74 14.66 63.07 9.93 63.07 9.93 63.74"/><polygon class="cls-1" points="19.66 65.8 16.02 65.8 16.02 63.07 15.33 63.07 15.33 69.39 16.02 69.39 16.02 66.46 19.66 66.46 19.66 69.39 20.36 69.39 20.36 63.07 19.66 63.07 19.66 65.8"/><polygon class="cls-1" points="21.89 69.39 26.32 69.39 26.32 68.73 22.59 68.73 22.59 66.45 26.21 66.45 26.21 65.81 22.59 65.81 22.59 63.74 26.32 63.74 26.32 63.07 21.89 63.07 21.89 69.39"/><path class="cls-1" d="M33.34,67.28a2.25,2.25,0,0,1-.22,1.26,1.21,1.21,0,0,1-.94.27h-.5a1.2,1.2,0,0,1-.93-.27,2.28,2.28,0,0,1-.23-1.26v-.1h-.7v.12a2.65,2.65,0,0,0,.4,1.69,1.73,1.73,0,0,0,1.4.48h.62A1.83,1.83,0,0,0,33.63,69,2.28,2.28,0,0,0,34,67.49V63.07h-.7Z"/><path class="cls-1" d="M37.18,63.07l-2.34,6.32h.73l.59-1.62h3.19L40,69.39h.72l-2.35-6.32Zm-.79,4.08,1.25-3.41h.23l1.26,3.41Z"/><polygon class="cls-1" points="44.93 63.07 42.91 68.74 40.89 63.07 40.15 63.07 42.46 69.39 43.36 69.39 45.68 63.07 44.93 63.07"/><path class="cls-1" d="M47.43,63.07l-2.34,6.32h.72l.59-1.62h3.2l.6,1.62h.72l-2.34-6.32Zm-.79,4.08,1.25-3.41h.22l1.27,3.41Z"/><path class="cls-1" d="M56.38,63.07,54,69.39h.73l.59-1.62h3.19l.6,1.62h.73l-2.35-6.32Zm-.79,4.08,1.25-3.41h.23l1.26,3.41Z"/><polygon class="cls-1" points="65.23 68.71 61.8 63.07 60.73 63.07 60.73 69.39 61.42 69.39 61.42 63.74 64.85 69.39 65.92 69.39 65.92 63.07 65.23 63.07 65.23 68.71"/><path class="cls-1" d="M70.51,63.07H67.46v6.32h3.05a2.38,2.38,0,0,0,1.67-.47,2.29,2.29,0,0,0,.48-1.65V65.18a2.26,2.26,0,0,0-.48-1.64A2.36,2.36,0,0,0,70.51,63.07Zm1.42,4.21a1.67,1.67,0,0,1-.31,1.18,1.77,1.77,0,0,1-1.22.31H68.16V63.7H70.4a1.72,1.72,0,0,1,1.22.31,1.75,1.75,0,0,1,.31,1.23Z"/><path class="cls-1" d="M79.88,67.28a2.23,2.23,0,0,1-.23,1.26,1.2,1.2,0,0,1-.93.27h-.51a1.2,1.2,0,0,1-.93-.27,2.3,2.3,0,0,1-.22-1.26v-.1h-.7v.12A2.72,2.72,0,0,0,76.75,69a1.75,1.75,0,0,0,1.41.48h.62A1.79,1.79,0,0,0,80.16,69a2.23,2.23,0,0,0,.42-1.52V63.07h-.7Z"/><polygon class="cls-1" points="84.06 68.74 82.04 63.07 81.29 63.07 83.6 69.39 84.51 69.39 86.82 63.07 86.08 63.07 84.06 68.74"/><polygon class="cls-1" points="91.01 68.7 88.85 63.07 87.7 63.07 87.7 69.39 88.39 69.39 88.39 63.66 90.58 69.39 91.44 69.39 93.62 63.66 93.62 69.39 94.31 69.39 94.31 63.07 93.16 63.07 91.01 68.7"/><path class="cls-1" d="M101.42,63h-.73a2.26,2.26,0,0,0-1.65.48,2.46,2.46,0,0,0-.46,1.69V67.3A2.44,2.44,0,0,0,99,69a2.26,2.26,0,0,0,1.65.48h.73a2.56,2.56,0,0,0,1.66-.41,2,2,0,0,0,.45-1.47v-.41h-.71v.11s0,.11,0,.19a1.45,1.45,0,0,1-.29,1,1.73,1.73,0,0,1-1.17.28h-.48a3.35,3.35,0,0,1-.85-.07,1,1,0,0,1-.42-.24.8.8,0,0,1-.25-.42,4.7,4.7,0,0,1-.07-1v-1.8a4.7,4.7,0,0,1,.07-1,.89.89,0,0,1,.25-.42,1,1,0,0,1,.43-.24,4,4,0,0,1,.84-.07h.48a1.77,1.77,0,0,1,1.15.27,1.3,1.3,0,0,1,.29,1v.17h.72v-.28a1.76,1.76,0,0,0-.47-1.39A2.53,2.53,0,0,0,101.42,63Z"/><path class="cls-1" d="M107.6,63h-.8a2.56,2.56,0,0,0-1.78.48,2.26,2.26,0,0,0-.5,1.69V67.3A2.25,2.25,0,0,0,105,69a2.56,2.56,0,0,0,1.78.48h.8a2.55,2.55,0,0,0,1.77-.48,2.25,2.25,0,0,0,.51-1.69V65.16a2.27,2.27,0,0,0-.5-1.69A2.55,2.55,0,0,0,107.6,63Zm1.54,4.14a4,4,0,0,1-.07.94.82.82,0,0,1-.26.43,1.21,1.21,0,0,1-.48.24,4.12,4.12,0,0,1-.94.07H107a4.06,4.06,0,0,1-.94-.07,1.21,1.21,0,0,1-.48-.24.85.85,0,0,1-.26-.44,3.87,3.87,0,0,1-.08-.93V65.34a4,4,0,0,1,.08-.94.79.79,0,0,1,.26-.43,1.1,1.1,0,0,1,.48-.25,4.73,4.73,0,0,1,.94-.07h.39a4.73,4.73,0,0,1,.94.07,1.21,1.21,0,0,1,.48.24.89.89,0,0,1,.26.43,4.18,4.18,0,0,1,.07.94Z"/><polygon class="cls-1" points="115.7 68.71 112.27 63.07 111.2 63.07 111.2 69.39 111.89 69.39 111.89 63.74 115.32 69.39 116.39 69.39 116.39 63.07 115.7 63.07 115.7 68.71"/><polygon class="cls-1" points="117.93 69.39 118.63 69.39 118.63 66.45 121.78 66.45 121.78 65.81 118.63 65.81 118.63 63.74 121.88 63.74 121.88 63.07 117.93 63.07 117.93 69.39"/><polygon class="cls-1" points="123.08 69.39 127.52 69.39 127.52 68.73 123.78 68.73 123.78 66.45 127.41 66.45 127.41 65.81 123.78 65.81 123.78 63.74 127.52 63.74 127.52 63.07 123.08 63.07 123.08 69.39"/><path class="cls-1" d="M131.49,63.07h-2.85v6.32h.7V66.93h2.24a1.14,1.14,0,0,1,.84.24,1.46,1.46,0,0,1,.21.92v1.3h.73V67.87a1.68,1.68,0,0,0-.18-.88,1,1,0,0,0-.63-.39.9.9,0,0,0,.61-.35,1.36,1.36,0,0,0,.2-.78v-1a1.34,1.34,0,0,0-.4-1.12A2.49,2.49,0,0,0,131.49,63.07Zm1.14,2.31a.87.87,0,0,1-.24.7,1.87,1.87,0,0,1-1,.19h-2V63.74h2a1.86,1.86,0,0,1,1.05.19.9.9,0,0,1,.23.71Z"/><polygon class="cls-1" points="134.72 69.39 139.15 69.39 139.15 68.73 135.42 68.73 135.42 66.45 139.05 66.45 139.05 65.81 135.42 65.81 135.42 63.74 139.15 63.74 139.15 63.07 134.72 63.07 134.72 69.39"/><polygon class="cls-1" points="144.78 68.71 141.35 63.07 140.28 63.07 140.28 69.39 140.97 69.39 140.97 63.74 144.4 69.39 145.48 69.39 145.48 63.07 144.78 63.07 144.78 68.71"/><path class="cls-1" d="M149.66,63h-.74a2.23,2.23,0,0,0-1.64.48,2.4,2.4,0,0,0-.47,1.69V67.3a2.39,2.39,0,0,0,.47,1.69,2.23,2.23,0,0,0,1.64.48h.74a2.51,2.51,0,0,0,1.65-.41,1.92,1.92,0,0,0,.46-1.47v-.41h-.72a.45.45,0,0,0,0,.11v.19a1.45,1.45,0,0,1-.29,1,1.7,1.7,0,0,1-1.16.28h-.49a3.4,3.4,0,0,1-.85-.07,1.1,1.1,0,0,1-.42-.24.8.8,0,0,1-.25-.42,4.7,4.7,0,0,1-.07-1v-1.8a4.7,4.7,0,0,1,.07-1,.89.89,0,0,1,.25-.42,1.07,1.07,0,0,1,.43-.24,4.08,4.08,0,0,1,.84-.07h.49a1.72,1.72,0,0,1,1.14.27,1.26,1.26,0,0,1,.3,1v.17h.72v-.28a1.79,1.79,0,0,0-.47-1.39A2.55,2.55,0,0,0,149.66,63Z"/><polygon class="cls-1" points="157.38 63.74 157.38 63.07 152.95 63.07 152.95 69.39 157.38 69.39 157.38 68.73 153.65 68.73 153.65 66.45 157.28 66.45 157.28 65.81 153.65 65.81 153.65 63.74 157.38 63.74"/><path class="cls-1" d="M156.94,6.53H6.62v46H156.94ZM30.8,8.58h0V50.47h-22V8.58h22ZM50.57,29.9a6.55,6.55,0,0,1,.88,3.79V36.1A9.25,9.25,0,0,1,50.82,40a3.34,3.34,0,0,1-2,1.74,21.11,21.11,0,0,1-5.66.47H35V16.15H42a19.53,19.53,0,0,1,5.07.5,5,5,0,0,1,2.79,2,8.84,8.84,0,0,1,1.06,4.9,5.07,5.07,0,0,1-.75,3.18,5.32,5.32,0,0,1-3,1.39A5.29,5.29,0,0,1,50.57,29.9Zm12.67-9.37a1,1,0,0,0-1-.49,1,1,0,0,0-1.1.6,9,9,0,0,0-.23,2.57v12.1a8.49,8.49,0,0,0,.23,2.49,1,1,0,0,0,1.05.57,1,1,0,0,0,1-.58,9.22,9.22,0,0,0,.24-2.73V31.78h7.11v1a19.09,19.09,0,0,1-.6,5.74,5.91,5.91,0,0,1-2.65,3,9.37,9.37,0,0,1-5,1.27,10.88,10.88,0,0,1-5.14-1.08,5.35,5.35,0,0,1-2.68-3A18.84,18.84,0,0,1,53.81,33V25.37a31.6,31.6,0,0,1,.2-4.23,5.72,5.72,0,0,1,1.21-2.71A6.64,6.64,0,0,1,58,16.37a10.47,10.47,0,0,1,4.09-.74,10.32,10.32,0,0,1,5.18,1.16,5.61,5.61,0,0,1,2.68,2.88,16.55,16.55,0,0,1,.64,5.38v2.48H63.47V23A7.83,7.83,0,0,0,63.24,20.53ZM89,42.23H82.75L79.06,30.37V42.23H73.12V16.15h5.94L83,27.9V16.15H89Zm65.76,8.24H93.57V8.58h61.15Z"/><path class="cls-1" d="M44.11,21.37a1.08,1.08,0,0,0-.6-.62,5.66,5.66,0,0,0-1.44-.15,5.66,5.66,0,0,1,1.44.15A1.08,1.08,0,0,1,44.11,21.37Z"/><path class="cls-1" d="M42.76,26.39c.68,0,1.12-.16,1.3-.49C43.88,26.23,43.44,26.39,42.76,26.39Z"/><path class="cls-1" d="M14.85,41.86a2,2,0,0,0,1.42.52h6a1.93,1.93,0,0,0,1.41-.52,1.77,1.77,0,0,0,.55-1.35V17.2H21.87V40.4H16.66V34.21H14.3v6.3A1.81,1.81,0,0,0,14.85,41.86Z"/><path class="cls-1" d="M42.07,30.46v7.32a6.35,6.35,0,0,0,.66-.05,2,2,0,0,0,1.21-.4,2.13,2.13,0,0,0,.38-1.27c0-.22,0-.46,0-.72V32.9a3.43,3.43,0,0,0-.36-2A3.35,3.35,0,0,0,42.07,30.46Z"/><path class="cls-1" d="M43.51,20.75a5.66,5.66,0,0,0-1.44-.15v5.81l.69,0c.68,0,1.12-.16,1.3-.49a7.82,7.82,0,0,0,.28-2.81,4.35,4.35,0,0,0-.23-1.72A1.08,1.08,0,0,0,43.51,20.75Z"/><path class="cls-1" d="M136,26.62a23.34,23.34,0,0,0-2.67.2l-2.68.34v-.44h-2.25V42.38h2.25V28.78l5-.15V42.38h2.26V28.49A1.66,1.66,0,0,0,136,26.62Z"/><path class="cls-1" d="M147.74,19.08V17.2h-3.45a1.71,1.71,0,0,0-2,1.86v7.66h-1.91V28.6h1.91V42.38h2.23V28.6h2.81V26.72h-2.81V19.08Z"/><path class="cls-1" d="M109.4,17.2h-6.69a2,2,0,0,0-1.42.52,1.74,1.74,0,0,0-.55,1.34V40.51a1.77,1.77,0,0,0,.55,1.35,2,2,0,0,0,1.42.52h6.69a2,2,0,0,0,1.41-.52,1.77,1.77,0,0,0,.55-1.35v-6.3H109V40.4h-5.9V19.17H109v5.67h2.36V19.06a1.74,1.74,0,0,0-.55-1.34A2,2,0,0,0,109.4,17.2Z"/><path class="cls-1" d="M122.72,26.72h-5.54c-1.3,0-2,.62-2,1.87V40.51c0,1.25.67,1.87,2,1.87h5.54c1.31,0,2-.62,2-1.87V28.59C124.68,27.34,124,26.72,122.72,26.72Zm-.29,13.78h-5V28.6h5Z"/></svg>