<svg id="Capa_1" data-name="Capa 1" xmlns="http://www.w3.org/2000/svg" viewBox="0 0 1169 51"><defs><style>.cls-1{fill:#ef476f;}</style></defs><path class="cls-1" d="M5.86,43,17.88,8H23L11,43Z"/><path class="cls-1" d="M24.54,43,36.56,8h5.16L29.69,43Z"/><path class="cls-1" d="M43.22,43,55.24,8H60.4L48.37,43Z"/><path class="cls-1" d="M61.9,43,73.92,8h5.16L67.05,43Z"/><path class="cls-1" d="M80.58,43,92.61,8h5.15L85.73,43Z"/><path class="cls-1" d="M99.26,43,111.29,8h5.15L104.41,43Z"/><path class="cls-1" d="M117.94,43,130,8h5.15L123.09,43Z"/><path class="cls-1" d="M136.62,43,148.65,8h5.15L141.77,43Z"/><path class="cls-1" d="M155.3,43,167.33,8h5.15L160.45,43Z"/><path class="cls-1" d="M174,43,186,8h5.15L179.13,43Z"/><path class="cls-1" d="M192.66,43,204.69,8h5.15L197.81,43Z"/><path class="cls-1" d="M211.34,43,223.37,8h5.15L216.49,43Z"/><path class="cls-1" d="M230,43,242.05,8h5.15L235.18,43Z"/><path class="cls-1" d="M248.7,43,260.73,8h5.15L253.86,43Z"/><path class="cls-1" d="M267.38,43,279.41,8h5.15L272.54,43Z"/><path class="cls-1" d="M286.06,43,298.09,8h5.15L291.22,43Z"/><path class="cls-1" d="M304.74,43,316.77,8h5.15L309.9,43Z"/><path class="cls-1" d="M323.42,43,335.45,8h5.15L328.58,43Z"/><path class="cls-1" d="M342.1,43,354.13,8h5.15L347.26,43Z"/><path class="cls-1" d="M360.78,43,372.81,8H378L365.94,43Z"/><path class="cls-1" d="M379.46,43,391.49,8h5.15L384.62,43Z"/><path class="cls-1" d="M398.14,43,410.17,8h5.15L403.3,43Z"/><path class="cls-1" d="M416.82,43,428.85,8H434L422,43Z"/><path class="cls-1" d="M435.5,43,447.53,8h5.15L440.66,43Z"/><path class="cls-1" d="M454.18,43,466.21,8h5.15L459.34,43Z"/><path class="cls-1" d="M472.86,43,484.89,8H490L478,43Z"/><path class="cls-1" d="M491.54,43,503.57,8h5.16L496.7,43Z"/><path class="cls-1" d="M510.22,43,522.25,8h5.16L515.38,43Z"/><path class="cls-1" d="M528.91,43,540.93,8h5.16L534.06,43Z"/><path class="cls-1" d="M547.59,43,559.61,8h5.16L552.74,43Z"/><path class="cls-1" d="M566.27,43,578.29,8h5.16L571.42,43Z"/><path class="cls-1" d="M585,43,597,8h5.16L590.1,43Z"/><path class="cls-1" d="M603.63,43,615.65,8h5.16L608.78,43Z"/><path class="cls-1" d="M622.31,43,634.33,8h5.16L627.46,43Z"/><path class="cls-1" d="M641,43,653,8h5.16L646.14,43Z"/><path class="cls-1" d="M659.67,43,671.69,8h5.16L664.82,43Z"/><path class="cls-1" d="M678.35,43,690.37,8h5.16L683.5,43Z"/><path class="cls-1" d="M697,43,709.05,8h5.16L702.18,43Z"/><path class="cls-1" d="M715.71,43,727.73,8h5.16L720.86,43Z"/><path class="cls-1" d="M734.39,43,746.41,8h5.16L739.54,43Z"/><path class="cls-1" d="M753.07,43,765.09,8h5.16L758.22,43Z"/><path class="cls-1" d="M771.75,43,783.77,8h5.16L776.9,43Z"/><path class="cls-1" d="M790.43,43,802.46,8h5.15L795.58,43Z"/><path class="cls-1" d="M809.72,43,821.74,8h5.16L814.87,43Z"/><path class="cls-1" d="M828.4,43,840.42,8h5.16L833.55,43Z"/><path class="cls-1" d="M847.08,43,859.1,8h5.16L852.23,43Z"/><path class="cls-1" d="M865.76,43,877.78,8h5.16L870.91,43Z"/><path class="cls-1" d="M884.44,43,896.46,8h5.16L889.59,43Z"/><path class="cls-1" d="M903.12,43,915.14,8h5.16L908.27,43Z"/><path class="cls-1" d="M921.8,43,933.82,8H939L927,43Z"/><path class="cls-1" d="M940.48,43,952.51,8h5.15L945.63,43Z"/><path class="cls-1" d="M959.16,43,971.19,8h5.15L964.31,43Z"/><path class="cls-1" d="M977.84,43,989.87,8H995L983,43Z"/><path class="cls-1" d="M996.52,43l12-35.06h5.15l-12,35.06Z"/><path class="cls-1" d="M1015.2,43l12-35.06h5.15l-12,35.06Z"/><path class="cls-1" d="M1033.88,43l12-35.06h5.15L1039,43Z"/><path class="cls-1" d="M1052.56,43l12-35.06h5.15l-12,35.06Z"/><path class="cls-1" d="M1071.24,43l12-35.06h5.15l-12,35.06Z"/><path class="cls-1" d="M1089.92,43,1102,8h5.15l-12,35.06Z"/><path class="cls-1" d="M1108.6,43l12-35.06h5.15l-12,35.06Z"/><path class="cls-1" d="M1127.28,43l12-35.06h5.15l-12,35.06Z"/><path class="cls-1" d="M1146,43,1158,8h5.15l-12,35.06Z"/></svg>