<svg id="Capa_1" data-name="Capa 1" xmlns="http://www.w3.org/2000/svg" viewBox="0 0 973 46"><defs><style>.cls-1{fill:#fffcf9;}</style></defs><path class="cls-1" d="M8.35,38.49,19,7.51h4.55l-10.62,31Z"/><path class="cls-1" d="M24.86,38.49l10.62-31H40l-10.62,31Z"/><path class="cls-1" d="M41.36,38.49,52,7.51h4.55l-10.62,31Z"/><path class="cls-1" d="M57.86,38.49l10.62-31H73l-10.62,31Z"/><path class="cls-1" d="M74.36,38.49,85,7.51h4.56l-10.63,31Z"/><path class="cls-1" d="M90.86,38.49l10.62-31H106l-10.63,31Z"/><path class="cls-1" d="M107.36,38.49,118,7.51h4.55l-10.63,31Z"/><path class="cls-1" d="M123.86,38.49l10.63-31H139l-10.62,31Z"/><path class="cls-1" d="M140.36,38.49,151,7.51h4.55l-10.62,31Z"/><path class="cls-1" d="M156.87,38.49l10.62-31H172l-10.62,31Z"/><path class="cls-1" d="M173.37,38.49,184,7.51h4.55l-10.62,31Z"/><path class="cls-1" d="M189.87,38.49l10.62-31h4.56l-10.63,31Z"/><path class="cls-1" d="M206.37,38.49,217,7.51h4.56l-10.63,31Z"/><path class="cls-1" d="M222.87,38.49l10.63-31h4.55l-10.63,31Z"/><path class="cls-1" d="M239.37,38.49,250,7.51h4.55l-10.62,31Z"/><path class="cls-1" d="M255.87,38.49l10.63-31h4.55l-10.62,31Z"/><path class="cls-1" d="M272.38,38.49,283,7.51h4.55l-10.62,31Z"/><path class="cls-1" d="M288.88,38.49l10.62-31h4.55l-10.62,31Z"/><path class="cls-1" d="M305.38,38.49,316,7.51h4.56l-10.63,31Z"/><path class="cls-1" d="M321.88,38.49l10.62-31h4.56l-10.63,31Z"/><path class="cls-1" d="M338.38,38.49,349,7.51h4.55l-10.63,31Z"/><path class="cls-1" d="M354.88,38.49l10.63-31h4.55l-10.62,31Z"/><path class="cls-1" d="M371.38,38.49,382,7.51h4.55l-10.62,31Z"/><path class="cls-1" d="M387.89,38.49l10.62-31h4.55l-10.62,31Z"/><path class="cls-1" d="M404.39,38.49,415,7.51h4.55l-10.62,31Z"/><path class="cls-1" d="M420.89,38.49l10.62-31h4.56l-10.63,31Z"/><path class="cls-1" d="M437.39,38.49,448,7.51h4.56l-10.63,31Z"/><path class="cls-1" d="M453.89,38.49l10.62-31h4.56l-10.63,31Z"/><path class="cls-1" d="M470.39,38.49,481,7.51h4.55L475,38.49Z"/><path class="cls-1" d="M486.89,38.49l10.63-31h4.55l-10.62,31Z"/><path class="cls-1" d="M503.4,38.49,514,7.51h4.55L508,38.49Z"/><path class="cls-1" d="M519.9,38.49l10.62-31h4.55l-10.62,31Z"/><path class="cls-1" d="M536.4,38.49,547,7.51h4.55L541,38.49Z"/><path class="cls-1" d="M552.9,38.49l10.62-31h4.56l-10.63,31Z"/><path class="cls-1" d="M569.4,38.49,580,7.51h4.56L574,38.49Z"/><path class="cls-1" d="M585.9,38.49l10.63-31h4.55l-10.62,31Z"/><path class="cls-1" d="M602.4,38.49,613,7.51h4.55L607,38.49Z"/><path class="cls-1" d="M618.91,38.49l10.62-31h4.55l-10.62,31Z"/><path class="cls-1" d="M635.41,38.49,646,7.51h4.55L640,38.49Z"/><path class="cls-1" d="M652.44,38.49l10.63-31h4.55L657,38.49Z"/><path class="cls-1" d="M669,38.49l10.62-31h4.55l-10.62,31Z"/><path class="cls-1" d="M685.45,38.49l10.62-31h4.55L690,38.49Z"/><path class="cls-1" d="M702,38.49l10.62-31h4.56l-10.63,31Z"/><path class="cls-1" d="M718.45,38.49l10.62-31h4.56L723,38.49Z"/><path class="cls-1" d="M735,38.49l10.63-31h4.55l-10.63,31Z"/><path class="cls-1" d="M751.45,38.49l10.63-31h4.55L756,38.49Z"/><path class="cls-1" d="M768,38.49l10.63-31h4.55l-10.62,31Z"/><path class="cls-1" d="M784.46,38.49l10.62-31h4.55L789,38.49Z"/><path class="cls-1" d="M801,38.49l10.62-31h4.55l-10.62,31Z"/><path class="cls-1" d="M817.46,38.49l10.62-31h4.56L822,38.49Z"/><path class="cls-1" d="M834,38.49l10.62-31h4.56l-10.63,31Z"/><path class="cls-1" d="M850.46,38.49l10.62-31h4.56L855,38.49Z"/><path class="cls-1" d="M867,38.49l10.63-31h4.55l-10.62,31Z"/><path class="cls-1" d="M883.46,38.49l10.63-31h4.55L888,38.49Z"/><path class="cls-1" d="M900,38.49l10.62-31h4.55l-10.62,31Z"/><path class="cls-1" d="M916.47,38.49l10.62-31h4.55L921,38.49Z"/><path class="cls-1" d="M933,38.49l10.62-31h4.55l-10.62,31Z"/><path class="cls-1" d="M949.47,38.49l10.62-31h4.56L954,38.49Z"/></svg>