<svg xmlns="http://www.w3.org/2000/svg" width="1920" zoomAndPan="magnify"
     viewBox="0 0 1440 809.999993" height="1080"
     preserveAspectRatio="xMidYMid meet" version="1.2">
  <defs>
    <clipPath id="2a728b2a83">
      <path
          d="M 931.183594 659.335938 L 944.683594 659.335938 L 944.683594 679.585938 L 931.183594 679.585938 Z M 931.183594 659.335938 "/>
    </clipPath>
    <clipPath id="3a52661547">
      <path
          d="M 31 203.117188 L 432 203.117188 L 432 447.140625 L 31 447.140625 Z M 31 203.117188 "/>
    </clipPath>
    <clipPath id="55fc75cc60">
      <path
          d="M 349.78125 203.742188 C 345.589844 203.742188 341.542969 211.53125 332.167969 238.742188 C 294.113281 349.050781 277.023438 419.5 230.488281 419.5 C 189.855469 419.5 171.464844 363.453125 143.183594 281.167969 C 136.304688 261.164062 132.476562 250.890625 128.472656 250.890625 C 128.148438 250.890625 127.820312 250.957031 127.496094 251.09375 C 122.597656 253.101562 125.378906 265.371094 125.691406 291.453125 C 126.003906 316.316406 113.597656 332.929688 90.621094 332.929688 C 75.339844 332.929688 55.363281 325.585938 31.328125 308.433594 C 36.730469 316.914062 81.472656 356.636719 81.472656 356.636719 C 81.472656 356.636719 187.914062 447.023438 231.113281 447.023438 C 274.3125 447.023438 358.386719 376.316406 358.386719 376.316406 C 358.386719 376.316406 405.25 337.542969 431.671875 308.433594 C 408.140625 322.058594 391.148438 327.554688 378.90625 327.554688 C 342.875 327.554688 348.234375 279.890625 350.160156 251.867188 C 352.457031 218.453125 355.605469 205.289062 350.867188 203.917969 C 350.5 203.808594 350.148438 203.757812 349.78125 203.757812 Z M 349.78125 203.742188 "/>
    </clipPath>
    <clipPath id="3aff013563">
      <path
          d="M 27.164062 306.644531 L 433.863281 306.644531 L 433.863281 506 L 27.164062 506 Z M 27.164062 306.644531 "/>
    </clipPath>
    <clipPath id="4ef161835c">
      <path
          d="M 431.808594 307.019531 C 431.523438 307.019531 431.222656 307.117188 430.980469 307.304688 C 413.066406 321.148438 396.65625 333.917969 382.191406 345.183594 C 293.121094 414.519531 259.804688 440.46875 230.476562 440.46875 C 199.464844 440.46875 146.535156 398.871094 58.835938 329.957031 C 49.636719 322.722656 40.011719 315.164062 29.984375 307.304688 C 29.738281 307.117188 29.441406 307.019531 29.144531 307.019531 C 28.777344 307.019531 28.410156 307.171875 28.136719 307.457031 C 27.90625 307.714844 27.785156 308.027344 27.785156 308.351562 L 27.785156 308.390625 C 27.785156 308.71875 27.90625 309.042969 28.152344 309.289062 C 136.859375 427.074219 212.875 505.542969 230.449219 505.652344 L 230.53125 505.652344 C 249.164062 505.542969 326.140625 424.183594 432.8125 309.289062 C 433.042969 309.042969 433.164062 308.730469 433.179688 308.40625 L 433.179688 308.3125 C 433.164062 308 433.042969 307.6875 432.824219 307.441406 C 432.554688 307.144531 432.1875 306.996094 431.820312 306.996094 Z M 431.808594 307.019531 "/>
    </clipPath>
    <clipPath id="14f43bd96e">
      <path d="M 206 355 L 255 355 L 255 404 L 206 404 Z M 206 355 "/>
    </clipPath>
    <clipPath id="824184d65e">
      <path
          d="M 254.386719 379.738281 C 254.386719 392.941406 243.679688 403.648438 230.476562 403.648438 C 217.269531 403.648438 206.5625 392.941406 206.5625 379.738281 C 206.5625 366.53125 217.269531 355.824219 230.476562 355.824219 C 243.679688 355.824219 254.386719 366.53125 254.386719 379.738281 "/>
    </clipPath>
    <clipPath id="8382d39c4f">
      <path
          d="M 740.546875 483.660156 L 765.296875 483.660156 L 765.296875 519.660156 L 740.546875 519.660156 Z M 740.546875 483.660156 "/>
    </clipPath>
  </defs>
  <g id="6246750cc4">
    <rect x="0" width="1440" y="0" height="809.999993"
          style="fill:#ffffff;fill-opacity:1;stroke:none;"/>
    <rect x="0" width="1440" y="0" height="809.999993"
          style="fill:#ffffff;fill-opacity:1;stroke:none;"/>
    <g clip-rule="nonzero" clip-path="url(#2a728b2a83)">
      <path style=" stroke:none;fill-rule:nonzero;fill:#ffffff;fill-opacity:1;"
            d="M 944.183594 675.316406 L 944.683594 675.316406 C 944.683594 676.804688 944.441406 677.890625 943.964844 678.566406 C 943.496094 679.246094 942.90625 679.585938 942.199219 679.585938 C 941.617188 679.585938 941.0625 679.363281 940.527344 678.921875 C 939.996094 678.46875 939.515625 677.269531 939.09375 675.316406 L 937.90625 669.835938 L 933.792969 679.386719 L 931.183594 679.386719 L 937.089844 666.359375 C 936.777344 664.671875 936.402344 663.425781 935.960938 662.613281 C 935.519531 661.804688 934.972656 661.398438 934.316406 661.398438 C 933.792969 661.398438 933.332031 661.605469 932.9375 662.019531 C 932.550781 662.425781 932.335938 663.058594 932.289062 663.914062 L 931.792969 663.914062 C 931.820312 662.53125 932.089844 661.421875 932.605469 660.59375 C 933.121094 659.753906 933.765625 659.335938 934.539062 659.335938 C 935.035156 659.335938 935.503906 659.546875 935.945312 659.972656 C 936.398438 660.386719 936.785156 661.101562 937.105469 662.121094 C 937.4375 663.128906 937.949219 665.222656 938.636719 668.40625 L 939.617188 672.886719 C 940.011719 674.742188 940.425781 675.988281 940.859375 676.617188 C 941.300781 677.238281 941.824219 677.550781 942.433594 677.550781 C 943.464844 677.550781 944.046875 676.804688 944.183594 675.316406 Z M 944.183594 675.316406 "/>
    </g>
    <g clip-rule="nonzero" clip-path="url(#3a52661547)">
      <g clip-rule="nonzero" clip-path="url(#55fc75cc60)">
        <path
            style=" stroke:none;fill-rule:nonzero;fill:#6ad48c;fill-opacity:1;"
            d="M 21 196.957031 L 440.023438 196.957031 L 440.023438 512.457031 L 21 512.457031 Z M 21 196.957031 "/>
      </g>
    </g>
    <g clip-rule="nonzero" clip-path="url(#3aff013563)">
      <g clip-rule="nonzero" clip-path="url(#4ef161835c)">
        <path
            style=" stroke:none;fill-rule:nonzero;fill:#475366;fill-opacity:1;"
            d="M 21 196.957031 L 440.023438 196.957031 L 440.023438 512.457031 L 21 512.457031 Z M 21 196.957031 "/>
      </g>
    </g>
    <g clip-rule="nonzero" clip-path="url(#14f43bd96e)">
      <g clip-rule="nonzero" clip-path="url(#824184d65e)">
        <path
            style=" stroke:none;fill-rule:nonzero;fill:#000000;fill-opacity:1;"
            d="M 21 196.957031 L 440.023438 196.957031 L 440.023438 512.457031 L 21 512.457031 Z M 21 196.957031 "/>
      </g>
    </g>
    <g clip-rule="nonzero" clip-path="url(#8382d39c4f)">
      <path style=" stroke:none;fill-rule:nonzero;fill:#ffffff;fill-opacity:1;"
            d="M 764.382812 512.070312 L 765.292969 512.070312 C 765.292969 514.71875 764.855469 516.644531 763.976562 517.851562 C 763.117188 519.054688 762.039062 519.660156 760.738281 519.660156 C 759.675781 519.660156 758.65625 519.265625 757.675781 518.476562 C 756.699219 517.675781 755.820312 515.539062 755.046875 512.070312 L 752.871094 502.324219 L 745.328125 519.308594 L 740.546875 519.308594 L 751.375 496.144531 C 750.804688 493.144531 750.113281 490.925781 749.300781 489.488281 C 748.492188 488.046875 747.488281 487.328125 746.292969 487.328125 C 745.328125 487.328125 744.484375 487.695312 743.761719 488.433594 C 743.050781 489.152344 742.65625 490.273438 742.570312 491.796875 L 741.660156 491.796875 C 741.710938 489.335938 742.207031 487.367188 743.152344 485.894531 C 744.097656 484.402344 745.277344 483.660156 746.695312 483.660156 C 747.605469 483.660156 748.46875 484.035156 749.277344 484.789062 C 750.101562 485.527344 750.8125 486.800781 751.402344 488.609375 C 752.007812 490.398438 752.945312 494.125 754.210938 499.785156 L 756.007812 507.75 C 756.734375 511.050781 757.492188 513.261719 758.285156 514.382812 C 759.09375 515.488281 760.054688 516.039062 761.167969 516.039062 C 763.058594 516.039062 764.128906 514.71875 764.382812 512.070312 Z M 764.382812 512.070312 "/>
    </g>
    <g style="fill:#000000;fill-opacity:1;">
      <g transform="translate(443.490679, 457.238304)">
        <path style="stroke:none"
              d="M 139.296875 -84.3125 C 139.296875 -57.03125 132.71875 -36.15625 119.5625 -21.6875 C 106.414062 -7.226562 88.421875 0 65.578125 0 L 4.6875 0 L 4.6875 -4.4375 C 10.4375 -4.4375 14.539062 -5.707031 17 -8.25 C 19.46875 -10.800781 20.703125 -14.953125 20.703125 -20.703125 L 20.703125 -147.921875 C 20.703125 -153.835938 19.390625 -157.90625 16.765625 -160.125 C 14.140625 -162.34375 10.113281 -163.535156 4.6875 -163.703125 L 4.6875 -168.140625 L 69.765625 -168.140625 C 83.578125 -168.140625 95.742188 -164.769531 106.265625 -158.03125 C 116.785156 -151.289062 124.921875 -141.632812 130.671875 -129.0625 C 136.421875 -116.488281 139.296875 -101.570312 139.296875 -84.3125 Z M 65.578125 -9.125 C 76.429688 -9.125 84.40625 -12.738281 89.5 -19.96875 C 93.28125 -25.0625 96.195312 -33.03125 98.25 -43.875 C 100.300781 -54.726562 101.328125 -67.960938 101.328125 -83.578125 C 101.328125 -97.710938 100.335938 -109.789062 98.359375 -119.8125 C 96.390625 -129.84375 93.847656 -137.816406 90.734375 -143.734375 C 87.609375 -149.648438 83.414062 -153.675781 78.15625 -155.8125 C 72.894531 -157.945312 66.734375 -159.015625 59.671875 -159.015625 L 54.734375 -159.015625 L 54.734375 -24.15625 C 54.734375 -17.914062 55.515625 -13.847656 57.078125 -11.953125 C 58.640625 -10.066406 61.472656 -9.125 65.578125 -9.125 Z M 65.578125 -9.125 "/>
      </g>
    </g>
    <g style="fill:#000000;fill-opacity:1;">
      <g transform="translate(575.150216, 457.238304)">
        <path style="stroke:none"
              d="M 70.515625 -172.09375 L 112.421875 -31.796875 C 114.722656 -24.398438 116.570312 -18.976562 117.96875 -15.53125 C 119.363281 -12.082031 120.925781 -9.453125 122.65625 -7.640625 C 124.382812 -5.835938 126.726562 -4.769531 129.6875 -4.4375 L 129.6875 0 L 70.515625 0 L 70.515625 -4.4375 C 74.953125 -4.4375 78.113281 -4.925781 80 -5.90625 C 81.894531 -6.894531 82.84375 -8.625 82.84375 -11.09375 C 82.84375 -12.570312 82.59375 -14.539062 82.09375 -17 C 81.601562 -19.46875 81.113281 -21.523438 80.625 -23.171875 L 75.6875 -39.9375 L 33.78125 -39.9375 L 28.359375 -21.453125 C 27.035156 -17.335938 26.375 -14.378906 26.375 -12.578125 C 26.375 -9.773438 27.359375 -7.71875 29.328125 -6.40625 C 31.304688 -5.09375 34.429688 -4.4375 38.703125 -4.4375 L 38.703125 0 L 3.9375 0 L 3.9375 -4.4375 C 6.894531 -4.925781 9.316406 -5.953125 11.203125 -7.515625 C 13.097656 -9.078125 14.785156 -11.582031 16.265625 -15.03125 C 17.742188 -18.488281 19.632812 -23.832031 21.9375 -31.0625 L 66.078125 -172.09375 Z M 72.984375 -49.0625 L 55.46875 -107.5 L 54.984375 -107.5 L 36.734375 -49.0625 Z M 72.984375 -49.0625 "/>
      </g>
    </g>
    <g style="fill:#000000;fill-opacity:1;">
      <g transform="translate(695.221775, 457.238304)">
        <path style="stroke:none"
              d="M 127.71875 -123.765625 L 123.28125 -123.765625 C 122.289062 -132.804688 120.4375 -139.832031 117.71875 -144.84375 C 115.007812 -149.851562 111.023438 -153.46875 105.765625 -155.6875 C 100.503906 -157.90625 93.191406 -159.015625 83.828125 -159.015625 L 83.828125 -20.703125 C 83.828125 -14.460938 85.097656 -10.191406 87.640625 -7.890625 C 90.191406 -5.585938 94.179688 -4.4375 99.609375 -4.4375 L 102.3125 -4.4375 L 102.3125 0 L 31.3125 0 L 31.3125 -4.4375 L 34.265625 -4.4375 C 39.691406 -4.4375 43.632812 -5.707031 46.09375 -8.25 C 48.5625 -10.800781 49.796875 -14.789062 49.796875 -20.21875 L 49.796875 -159.015625 C 40.597656 -159.015625 33.367188 -158.109375 28.109375 -156.296875 C 22.847656 -154.492188 18.78125 -151.046875 15.90625 -145.953125 C 13.03125 -140.859375 11.179688 -133.460938 10.359375 -123.765625 L 5.921875 -123.765625 L 5.921875 -168.140625 L 127.71875 -168.140625 Z M 127.71875 -123.765625 "/>
      </g>
    </g>
    <g style="fill:#000000;fill-opacity:1;">
      <g transform="translate(826.634785, 457.238304)">
        <path style="stroke:none"
              d="M 79.390625 -172.09375 C 91.390625 -172.09375 102.851562 -169.09375 113.78125 -163.09375 C 124.707031 -157.09375 133.742188 -147.472656 140.890625 -134.234375 C 148.046875 -121.003906 151.625 -104.117188 151.625 -83.578125 C 151.625 -62.867188 147.925781 -45.976562 140.53125 -32.90625 C 133.132812 -19.84375 123.96875 -10.472656 113.03125 -4.796875 C 102.101562 0.867188 91.050781 3.703125 79.875 3.703125 C 68.207031 3.703125 56.90625 0.867188 45.96875 -4.796875 C 35.039062 -10.472656 25.921875 -19.800781 18.609375 -32.78125 C 11.296875 -45.769531 7.640625 -62.703125 7.640625 -83.578125 C 7.640625 -104.941406 11.378906 -122.238281 18.859375 -135.46875 C 26.335938 -148.707031 35.539062 -158.117188 46.46875 -163.703125 C 57.40625 -169.296875 68.378906 -172.09375 79.390625 -172.09375 Z M 45.609375 -85.0625 C 45.609375 -59.75 47.867188 -40.144531 52.390625 -26.25 C 56.910156 -12.363281 65.992188 -5.421875 79.640625 -5.421875 C 92.953125 -5.421875 101.945312 -12.160156 106.625 -25.640625 C 111.3125 -39.117188 113.65625 -59.085938 113.65625 -85.546875 C 113.65625 -111.847656 111.226562 -131.328125 106.375 -143.984375 C 101.53125 -156.640625 92.535156 -162.96875 79.390625 -162.96875 C 69.523438 -162.96875 62.085938 -158.941406 57.078125 -150.890625 C 52.066406 -142.835938 48.898438 -133.382812 47.578125 -122.53125 C 46.265625 -111.6875 45.609375 -99.195312 45.609375 -85.0625 Z M 45.609375 -85.0625 "/>
      </g>
    </g>
    <g style="fill:#000000;fill-opacity:1;">
      <g transform="translate(985.908374, 457.238304)">
        <path style="stroke:none"
              d="M 91.96875 -60.15625 L 92.453125 -60.15625 L 128.453125 -168.140625 L 179 -168.140625 L 179 -163.703125 C 174.226562 -163.378906 170.734375 -161.941406 168.515625 -159.390625 C 166.296875 -156.847656 165.1875 -152.617188 165.1875 -146.703125 L 165.1875 -21.9375 C 165.1875 -15.863281 166.210938 -11.46875 168.265625 -8.75 C 170.316406 -6.039062 173.894531 -4.601562 179 -4.4375 L 179 0 L 114.640625 0 L 114.640625 -4.4375 C 120.722656 -4.601562 124.992188 -5.710938 127.453125 -7.765625 C 129.921875 -9.816406 131.15625 -14.128906 131.15625 -20.703125 L 131.15625 -148.921875 L 130.671875 -148.921875 L 81.359375 0 L 77.65625 0 L 29.34375 -147.6875 L 28.84375 -147.6875 L 28.84375 -20.46875 C 28.84375 -14.550781 30.035156 -10.398438 32.421875 -8.015625 C 34.804688 -5.628906 38.707031 -4.4375 44.125 -4.4375 L 44.125 0 L 5.171875 0 L 5.171875 -4.4375 C 10.429688 -4.4375 14.171875 -5.664062 16.390625 -8.125 C 18.609375 -10.59375 19.71875 -14.378906 19.71875 -19.484375 L 19.71875 -147.921875 C 19.71875 -153.835938 18.523438 -157.90625 16.140625 -160.125 C 13.765625 -162.34375 10.109375 -163.535156 5.171875 -163.703125 L 5.171875 -168.140625 L 56.703125 -168.140625 Z M 91.96875 -60.15625 "/>
      </g>
    </g>
    <g style="fill:#000000;fill-opacity:1;">
      <g transform="translate(1168.358044, 457.238304)">
        <path style="stroke:none"
              d="M 68.046875 -163.703125 L 66.078125 -163.703125 C 57.203125 -163.703125 52.765625 -158.441406 52.765625 -147.921875 L 52.765625 -20.703125 C 52.765625 -14.628906 53.992188 -10.398438 56.453125 -8.015625 C 58.921875 -5.628906 62.785156 -4.4375 68.046875 -4.4375 L 68.046875 0 L 3.9375 0 L 3.9375 -4.4375 C 9.363281 -4.4375 13.1875 -5.75 15.40625 -8.375 C 17.625 -11.007812 18.734375 -15.117188 18.734375 -20.703125 L 18.734375 -147.921875 C 18.734375 -153.515625 17.539062 -157.539062 15.15625 -160 C 12.78125 -162.46875 9.039062 -163.703125 3.9375 -163.703125 L 3.9375 -168.140625 L 68.046875 -168.140625 Z M 68.046875 -163.703125 "/>
      </g>
    </g>
    <g style="fill:#000000;fill-opacity:1;">
      <g transform="translate(1240.351651, 457.238304)">
        <path style="stroke:none"
              d="M 76.921875 -172.09375 C 83.003906 -172.09375 88.140625 -171.394531 92.328125 -170 C 96.523438 -168.601562 100.84375 -166.753906 105.28125 -164.453125 C 110.207031 -161.816406 114.066406 -160.5 116.859375 -160.5 C 118.671875 -160.5 120.066406 -161.320312 121.046875 -162.96875 C 122.035156 -164.613281 122.859375 -167.65625 123.515625 -172.09375 L 127.953125 -172.09375 L 127.953125 -115.625 L 123.515625 -115.625 C 122.535156 -124.34375 120.15625 -132.191406 116.375 -139.171875 C 112.59375 -146.160156 107.90625 -151.625 102.3125 -155.5625 C 96.726562 -159.507812 90.726562 -161.484375 84.3125 -161.484375 C 76.257812 -161.484375 69.191406 -158.523438 63.109375 -152.609375 C 57.359375 -146.859375 52.878906 -138.679688 49.671875 -128.078125 C 46.472656 -117.472656 44.875 -102.804688 44.875 -84.078125 C 44.875 -72.398438 45.65625 -60.847656 47.21875 -49.421875 C 48.78125 -38.003906 52.351562 -28.351562 57.9375 -20.46875 C 60.894531 -16.351562 64.507812 -13.101562 68.78125 -10.71875 C 73.0625 -8.34375 77.832031 -7.15625 83.09375 -7.15625 C 91.632812 -7.15625 99.066406 -9.410156 105.390625 -13.921875 C 111.722656 -18.441406 119.242188 -26.046875 127.953125 -36.734375 L 127.953125 -24.15625 C 121.867188 -15.28125 114.304688 -8.414062 105.265625 -3.5625 C 96.234375 1.28125 86.457031 3.703125 75.9375 3.703125 C 62.457031 3.703125 50.5 0.128906 40.0625 -7.015625 C 29.625 -14.171875 21.488281 -24.117188 15.65625 -36.859375 C 9.820312 -49.597656 6.90625 -64.1875 6.90625 -80.625 C 6.90625 -97.71875 9.984375 -113.25 16.140625 -127.21875 C 22.304688 -141.1875 30.734375 -152.15625 41.421875 -160.125 C 52.109375 -168.101562 63.941406 -172.09375 76.921875 -172.09375 Z M 76.921875 -172.09375 "/>
      </g>
    </g>
  </g>
</svg>