<svg height="300" width="600" xmlns="http://www.w3.org/2000/svg" xmlns:xlink="http://www.w3.org/1999/xlink"><linearGradient id="a"><stop offset="0" stop-color="#2c3e50"/><stop offset=".5" stop-color="#3b95c4"/><stop offset=".75" stop-color="#9dcae1"/><stop offset="1" stop-color="#fff"/></linearGradient><linearGradient id="b" gradientUnits="userSpaceOnUse" x1="344.99011" x2="330.0097" xlink:href="#a" y1="305.93362" y2="625.93359"/><marker id="c" orient="auto" overflow="visible" refX="0" refY="0"><path d="m5.77 0-8.65 5v-10z" fill="url(#b)" fill-rule="evenodd" stroke="url(#b)" stroke-width="1pt" transform="scale(.2)"/></marker><marker id="d" orient="auto" overflow="visible" refX="0" refY="0"><path d="m5.77 0-8.65 5v-10z" fill="#007200" fill-rule="evenodd" stroke="#007200" stroke-width="1pt" transform="scale(.2)"/></marker><linearGradient id="e" gradientTransform="matrix(-.92149275 0 0 -.92149275 605.14471 550.95784)" gradientUnits="userSpaceOnUse" x1="409.27582" x2="330.0097" y1="335.93362" y2="680.93359"><stop offset="0" stop-color="#007200"/><stop offset=".3344273" stop-color="#009700"/><stop offset=".53108472" stop-color="#00b300"/><stop offset="1" stop-color="#fff"/></linearGradient><linearGradient id="f" gradientUnits="userSpaceOnUse" x1="348.03919788031" x2="274.99604297968" xlink:href="#a" y1="59.80825531126" y2="377.72322641647"/><g transform="translate(11.72359 -.490541)"><path d="m372.63325 56.638079h79.6433c52.05812 0 93.96758 41.90961 93.96758 93.967741 0 52.05812-41.90946 93.96773-93.96758 93.96773h-265.25827" fill="none" stroke="url(#e)" stroke-width="23.037"/><path d="m203.40596 244.5677h-79.6433c-52.058119 0-93.96759-41.90961-93.96759-93.96774 0-52.058122 41.909471-93.967732 93.96759-93.967732h253.25827" fill="none" marker-end="url(#c)" stroke="url(#f)" stroke-width="23.037319"/><path d="m207.34726 244.55916h-8.28956" fill="#008000" marker-end="url(#d)" stroke="#007200" stroke-width="23.037319"/><text font-family="unifur" font-size="193.555313" font-weight="500" letter-spacing="0" word-spacing="0" x="67.179756" y="206.89038"><tspan font-family="unifur" font-size="180" font-weight="500" x="67.179756" y="206.89038">EDYO</tspan></text></g></svg>