<svg width="200" height="101" viewBox="0 0 200 101" fill="none" xmlns="http://www.w3.org/2000/svg">
<rect width="199.997" height="100" transform="translate(0 0.340576)" fill="#FF7AAC"/>
<path fill-rule="evenodd" clip-rule="evenodd" d="M42.7726 38.353C41.9406 36.9881 40.8011 35.9183 39.3497 35.1435C37.9005 34.3688 36.2365 33.9791 34.369 33.9791H22.8567V61.5603H29.3024V52.1031H34.3667C36.2387 52.1031 37.8982 51.7089 39.3474 50.9206C40.7966 50.1346 41.9384 49.0512 42.7704 47.6706C43.6001 46.29 44.0138 44.7337 44.0138 43.0017C44.0138 41.2697 43.5978 39.7179 42.7704 38.353H42.7726ZM37.1747 44.5377C36.9102 44.9859 36.5349 45.3328 36.0488 45.5828C35.5627 45.8305 34.9998 45.9566 34.369 45.9566H29.3069V40.085H34.369C35.002 40.085 35.5627 40.2111 36.0488 40.4589C36.5372 40.7089 36.9125 41.058 37.1747 41.5039C37.4392 41.9521 37.5704 42.4499 37.5704 43.0017C37.5704 43.5535 37.437 44.0918 37.1747 44.5377Z" fill="black"/>
<path fill-rule="evenodd" clip-rule="evenodd" d="M61.5762 41.8598C62.3517 42.8102 62.892 44.094 63.1972 45.7044L57.2195 47.8193C57.1042 47.2562 56.8962 46.8102 56.5932 46.4904C56.132 46.0039 55.5985 45.7607 54.9134 45.7607C54.2284 45.7607 53.6157 45.9927 53.0753 46.4499C52.5327 46.9093 52.119 47.5602 51.8296 48.4003C51.5402 49.2404 51.3955 50.1999 51.3955 51.2765V61.5603H45.2641V40.2832H50.7218V43.9476C51.1694 43.0805 51.7053 42.3463 52.3247 41.7404C52.9442 41.1368 53.6609 40.6706 54.4793 40.3418C55.2955 40.0129 56.1659 39.8485 57.0906 39.8485C58.9898 39.8485 60.4864 40.5174 61.5807 41.8575L61.5762 41.8598Z" fill="black"/>
<path fill-rule="evenodd" clip-rule="evenodd" d="M107.164 45.3283C106.255 43.6481 105.014 42.3147 103.445 41.3282C101.876 40.344 100.142 39.8508 98.2451 39.8508C96.3483 39.8508 94.6978 40.2652 93.3006 41.0918C92.4912 41.5737 91.7949 42.1728 91.2048 42.8868V40.2832H85.7471V68.9882H91.8785V59.6954C91.926 59.7405 91.9712 59.7878 92.0164 59.8306C92.7942 60.54 93.7098 61.0783 94.7656 61.4477C95.8192 61.8125 96.979 61.9995 98.2474 61.9995C100.171 61.9995 101.917 61.5062 103.488 60.522C105.057 59.5378 106.289 58.1977 107.187 56.5017C108.082 54.808 108.53 52.9476 108.53 50.9251C108.53 48.9026 108.075 47.0129 107.166 45.3305L107.164 45.3283ZM101.627 53.5828C101.166 54.3823 100.54 55.0197 99.7486 55.4927C98.9595 55.9634 98.0891 56.2022 97.1373 56.2022C96.1357 56.2022 95.2404 55.9724 94.4491 55.513C93.6578 55.0535 93.0316 54.4251 92.5704 53.6233C92.1091 52.8215 91.8785 51.9094 91.8785 50.8846C91.8785 49.9139 92.1024 49.0287 92.55 48.2247C92.9999 47.4229 93.6194 46.7922 94.4084 46.335C95.1997 45.8756 96.0973 45.6458 97.0966 45.6458C98.0959 45.6458 98.955 45.8778 99.7486 46.335C100.538 46.7945 101.166 47.4319 101.625 48.2449C102.086 49.0602 102.317 49.9521 102.317 50.9229C102.317 51.8936 102.084 52.7832 101.625 53.5828H101.627Z" fill="black"/>
<path fill-rule="evenodd" clip-rule="evenodd" d="M116.226 59.0783C116.318 60.1031 116.481 60.9319 116.721 61.5603H109.956V32.3237H116.088V55.4116C116.088 56.8306 116.133 58.0513 116.226 59.0761V59.0783Z" fill="black"/>
<path fill-rule="evenodd" clip-rule="evenodd" d="M133.415 40.2809H139.981L130.566 62.781C129.75 64.7495 128.674 66.281 127.342 67.3711C126.011 68.4612 124.238 69.0063 122.023 69.0063C121.127 69.0063 120.257 68.9094 119.411 68.7112C118.568 68.513 117.842 68.272 117.236 67.9815L119.095 62.1504C119.649 62.4387 120.182 62.6616 120.698 62.8193C121.211 62.977 121.717 63.0558 122.219 63.0558C122.931 63.0558 123.506 62.8576 123.94 62.4634C124.374 62.0693 124.765 61.504 125.106 60.7697L125.513 59.8688L117.315 40.2832H123.881L128.629 52.8035L133.415 40.2832V40.2809Z" fill="black"/>
<path fill-rule="evenodd" clip-rule="evenodd" d="M84.0966 49.9792C84.0966 48.0873 83.6354 46.3665 82.7107 44.817C81.786 43.2652 80.5222 42.0512 78.9148 41.1728C77.3073 40.2899 75.5144 39.8508 73.5362 39.8508C71.5579 39.8508 69.6588 40.3327 67.9993 41.2899C66.3376 42.2472 65.0308 43.576 64.0835 45.2697C63.1339 46.9634 62.6592 48.862 62.6592 50.9634C62.6592 53.0648 63.1317 55.0265 64.0835 56.6954C65.0331 58.3643 66.3715 59.6661 68.0965 60.5963C69.8238 61.5288 71.8066 61.9972 74.0494 61.9972C76.8189 61.9972 79.073 61.3418 80.8116 60.0243C82.1207 59.0378 83.0883 57.7675 83.7078 56.2179L77.7798 54.1594C77.6261 54.9139 77.2146 55.5175 76.5386 55.9679C75.8264 56.4387 74.9153 56.6774 73.8097 56.6774C72.7042 56.6774 71.784 56.4409 70.9814 55.9679C70.1765 55.4972 69.5638 54.8058 69.1411 53.8981C68.9331 53.4499 68.7771 52.9567 68.6685 52.4206H83.8525C84.0107 51.5805 84.0921 50.7675 84.0921 49.9792H84.0966ZM68.9217 48.0062C68.9783 47.8485 69.0371 47.6976 69.1049 47.5535C69.5005 46.6999 70.0657 46.0445 70.805 45.5828C71.5421 45.1233 72.4396 44.8936 73.4932 44.8936C74.2325 44.8936 74.9108 45.031 75.5302 45.308C76.152 45.585 76.6448 45.9521 77.0134 46.4116C77.3819 46.871 77.5944 47.4048 77.6464 48.0084H68.9195L68.9217 48.0062Z" fill="black"/>
<path fill-rule="evenodd" clip-rule="evenodd" d="M172.91 37.6571L157.466 28.2516C152.492 25.2246 146.108 28.7899 146.108 34.5962V61.049C146.108 66.3283 149.221 69.0536 153.22 69.0536C156.971 69.0536 160.044 66.1594 160.313 62.4927C163.98 62.1098 167.005 59.0243 166.837 54.8441L173.568 50.7449C175.949 49.2945 177.14 46.8485 177.14 44.4003C177.14 41.9521 176.304 39.5309 172.91 37.6526V37.6571ZM153.22 64.8418C151.629 64.8418 150.34 63.5558 150.34 61.9725C150.34 60.3891 151.629 59.1008 153.22 59.1008C154.812 59.1008 156.103 60.3869 156.103 61.9725C156.103 63.558 154.812 64.8418 153.22 64.8418ZM162.607 55.2697C162.607 56.3531 161.906 58.3193 159.313 58.3193C159.019 57.8351 158.669 57.3846 158.273 56.986C157.873 56.5873 157.428 56.2337 156.944 55.9341C155.861 55.2697 154.586 54.8868 153.22 54.8868C152.28 54.8868 151.382 55.0693 150.561 55.3981C150.489 55.4274 150.408 55.4612 150.338 55.4927V49.1481C150.338 47.4634 151.708 46.0985 153.399 46.0985H159.544C161.235 46.0985 162.605 47.4634 162.605 49.1481V55.2697H162.607ZM171.361 47.1548L166.837 49.9093V49.1458C166.837 45.1346 163.573 41.8823 159.546 41.8823H153.401C152.309 41.8823 151.271 42.121 150.34 42.5535V34.5985C150.34 32.0827 153.105 30.5354 155.262 31.8485L171.364 41.6548C173.428 42.9116 173.428 45.8981 171.364 47.1548H171.361Z" fill="black"/>
</svg>
