<svg id="Capa_1" data-name="Capa 1" xmlns="http://www.w3.org/2000/svg" viewBox="0 0 124 34"><defs><style>.cls-1{fill:#ef476f;}.cls-2{fill:#fffcf9;}</style></defs><rect class="cls-1" x="1.07" y="0.75" width="121.87" height="32.5"/><path class="cls-2" d="M26.61,22.57,24.55,10h1.52L27.85,21.6h.25L30.42,10h2.7L35.43,21.6h.25L37.46,10H39l-2,12.6h-2.7L31.9,10.87h-.25l-2.33,11.7Z"/><path class="cls-2" d="M43.65,22.83A4.11,4.11,0,0,1,42,22.5a2.72,2.72,0,0,1-1.19-.93,2.53,2.53,0,0,1-.43-1.5,2.4,2.4,0,0,1,.43-1.48A2.64,2.64,0,0,1,42,17.7a4.75,4.75,0,0,1,1.69-.29h3v-.65a2,2,0,0,0-.55-1.48,2.24,2.24,0,0,0-1.63-.54,2.38,2.38,0,0,0-1.65.52A2.54,2.54,0,0,0,42,16.63l-1.34-.43a4.16,4.16,0,0,1,.69-1.34,3.32,3.32,0,0,1,1.25-1,4.32,4.32,0,0,1,1.88-.37,3.73,3.73,0,0,1,2.63.87A3.2,3.2,0,0,1,48,16.85v4q0,.54.51.54h.81v1.2H48.12a1.37,1.37,0,0,1-1-.33,1.15,1.15,0,0,1-.36-.89v-.09h-.21a4.45,4.45,0,0,1-.54.71,2.42,2.42,0,0,1-.9.61A4,4,0,0,1,43.65,22.83Zm.16-1.23a2.86,2.86,0,0,0,2-.75,2.74,2.74,0,0,0,.78-2.09v-.2H43.72a2.4,2.4,0,0,0-1.39.37A1.23,1.23,0,0,0,41.78,20a1.35,1.35,0,0,0,.57,1.15A2.43,2.43,0,0,0,43.81,21.6Z"/><path class="cls-2" d="M54,22.57A1.41,1.41,0,0,1,52.4,21V15H49.75V13.77H52.4V10.64h1.42v3.13H56.7V15H53.82v5.8a.47.47,0,0,0,.52.54h2v1.22Z"/><path class="cls-2" d="M62.73,22.83a4.79,4.79,0,0,1-2.29-.55,4.08,4.08,0,0,1-1.61-1.58,4.8,4.8,0,0,1-.58-2.43v-.2a4.84,4.84,0,0,1,.58-2.44,4,4,0,0,1,1.61-1.56,4.67,4.67,0,0,1,2.29-.55,4.58,4.58,0,0,1,2.15.47,3.7,3.7,0,0,1,1.41,1.24,4.16,4.16,0,0,1,.65,1.65l-1.38.29A2.9,2.9,0,0,0,65.13,16a2.49,2.49,0,0,0-.92-.87,3.09,3.09,0,0,0-1.46-.32,3.19,3.19,0,0,0-1.58.39,2.85,2.85,0,0,0-1.09,1.14,3.6,3.6,0,0,0-.41,1.76v.16A3.62,3.62,0,0,0,60.08,20a2.83,2.83,0,0,0,1.09,1.13,3.09,3.09,0,0,0,1.58.4,2.74,2.74,0,0,0,2-.69,3,3,0,0,0,.85-1.69l1.41.31a5.3,5.3,0,0,1-.72,1.64,3.91,3.91,0,0,1-1.42,1.24A4.58,4.58,0,0,1,62.73,22.83Z"/><path class="cls-2" d="M69.45,22.57V10h1.42v5.2h.25a2.34,2.34,0,0,1,.55-.74,2.85,2.85,0,0,1,1-.59,4.2,4.2,0,0,1,1.49-.23,3.67,3.67,0,0,1,1.77.42,3.14,3.14,0,0,1,1.25,1.23,3.88,3.88,0,0,1,.47,2v5.32H76.18V17.35a2.43,2.43,0,0,0-.66-1.9,2.53,2.53,0,0,0-1.77-.6,2.77,2.77,0,0,0-2.08.83,3.38,3.38,0,0,0-.8,2.47v4.42Z"/><path class="cls-2" d="M91.39,10.8A6.63,6.63,0,1,0,98,17.42,6.62,6.62,0,0,0,91.39,10.8ZM89.11,20.91v-7l6,3.48Z"/></svg>